<svg width="497" height="293" viewBox="0 0 497 293" fill="none" xmlns="http://www.w3.org/2000/svg">
<path d="M269.641 279.29C268.152 279.29 266.915 278.961 265.929 278.304C264.962 277.627 264.179 276.554 263.58 275.085L266.799 273.664C267.108 274.437 267.466 275.037 267.872 275.462C268.297 275.887 268.761 276.1 269.264 276.1C269.999 276.1 270.366 275.81 270.366 275.23C270.366 274.805 270.221 274.428 269.931 274.099C269.641 273.751 269.013 273.181 268.046 272.388L266.828 271.373C265.823 270.522 265.088 269.749 264.624 269.053C264.179 268.357 263.957 267.526 263.957 266.559C263.957 265.67 264.189 264.877 264.653 264.181C265.136 263.485 265.774 262.944 266.567 262.557C267.36 262.151 268.21 261.948 269.119 261.948C270.492 261.948 271.632 262.325 272.541 263.079C273.469 263.814 274.126 264.877 274.513 266.269L271.468 267.661C271.275 267.042 270.975 266.491 270.569 266.008C270.163 265.505 269.718 265.254 269.235 265.254C268.926 265.254 268.674 265.341 268.481 265.515C268.307 265.689 268.22 265.921 268.22 266.211C268.22 266.559 268.404 266.936 268.771 267.342C269.158 267.748 269.757 268.28 270.569 268.937L271.758 269.981C272.725 270.793 273.469 271.557 273.991 272.272C274.513 272.968 274.774 273.79 274.774 274.737C274.774 275.684 274.532 276.506 274.049 277.202C273.585 277.879 272.957 278.401 272.164 278.768C271.391 279.116 270.55 279.29 269.641 279.29ZM280.395 279.29C279.138 279.29 278.172 278.855 277.495 277.985C276.838 277.115 276.509 275.829 276.509 274.128V267.197C276.509 265.592 276.838 264.316 277.495 263.369C278.172 262.422 279.138 261.948 280.395 261.948C281.574 261.948 282.676 262.393 283.701 263.282V255.51H288.428V279H283.701V277.695C282.599 278.758 281.497 279.29 280.395 279.29ZM282.454 276.274C282.821 276.274 283.237 276.129 283.701 275.839V265.254C283.237 265.003 282.831 264.877 282.483 264.877C282.077 264.877 281.768 265.051 281.555 265.399C281.362 265.728 281.265 266.163 281.265 266.704V274.418C281.265 274.979 281.362 275.433 281.555 275.781C281.748 276.11 282.048 276.274 282.454 276.274ZM303.564 282.654C299.639 282.654 296.623 281.639 294.516 279.609C292.428 277.598 291.384 274.766 291.384 271.112C291.384 270.455 291.432 269.691 291.529 268.821C291.8 266.153 292.534 263.823 293.733 261.832C294.932 259.821 296.536 258.265 298.547 257.163C300.577 256.061 302.936 255.51 305.623 255.51C308.04 255.51 310.07 255.964 311.713 256.873C313.356 257.762 314.574 259.009 315.367 260.614C316.179 262.199 316.585 264.046 316.585 266.153C316.585 266.733 316.556 267.313 316.498 267.893C316.382 269.227 316.044 270.522 315.483 271.779C314.922 273.016 314.101 274.051 313.018 274.882C311.955 275.694 310.659 276.1 309.132 276.1C308.262 276.1 307.469 275.926 306.754 275.578C306.058 275.211 305.594 274.669 305.362 273.954C305.091 274.534 304.666 275.008 304.086 275.375C303.525 275.723 302.887 275.897 302.172 275.897C300.761 275.897 299.639 275.365 298.808 274.302C297.996 273.239 297.59 271.895 297.59 270.271C297.59 269.014 297.822 267.69 298.286 266.298C298.75 264.887 299.475 263.688 300.461 262.702C301.466 261.716 302.704 261.223 304.173 261.223C304.792 261.223 305.246 261.416 305.536 261.803C305.826 262.19 306.087 262.673 306.319 263.253L306.609 261.397H310.379L309.132 270.88C309.132 270.977 309.113 271.17 309.074 271.46C309.035 271.75 309.016 272.021 309.016 272.272C309.016 272.968 309.161 273.364 309.451 273.461C309.528 273.48 309.644 273.49 309.799 273.49C310.302 273.49 310.804 273.248 311.307 272.765C311.81 272.262 312.235 271.586 312.583 270.735C312.95 269.884 313.173 268.947 313.25 267.922C313.308 267.342 313.337 266.772 313.337 266.211C313.337 263.717 312.68 261.784 311.365 260.411C310.07 259.019 308.04 258.323 305.275 258.323C302.124 258.323 299.697 259.29 297.996 261.223C296.295 263.156 295.28 265.67 294.951 268.763C294.854 269.672 294.806 270.455 294.806 271.112C294.806 276.912 297.88 279.812 304.028 279.812C304.763 279.812 305.691 279.715 306.812 279.522C307.953 279.348 308.939 279.126 309.77 278.855L310.292 281.726C307.721 282.345 305.478 282.654 303.564 282.654ZM303.593 272.736C303.864 272.697 304.154 272.62 304.463 272.504C304.792 272.388 305.014 272.195 305.13 271.924L306.029 265.08C306.01 264.945 305.903 264.848 305.71 264.79C305.517 264.713 305.333 264.674 305.159 264.674C304.424 264.674 303.796 264.935 303.274 265.457C302.752 265.979 302.356 266.646 302.085 267.458C301.814 268.251 301.669 269.072 301.65 269.923C301.65 270.774 301.805 271.46 302.114 271.982C302.443 272.504 302.936 272.755 303.593 272.736ZM318.911 256.119H323.667V259.396H318.911V256.119ZM318.94 262.238H323.667V279H318.94V262.238ZM326.585 262.238H331.312V263.92C332.627 262.605 333.971 261.948 335.343 261.948C336.349 261.948 337.112 262.315 337.634 263.05C338.176 263.765 338.446 264.703 338.446 265.863V279H333.748V266.53C333.748 266.105 333.671 265.795 333.516 265.602C333.381 265.389 333.139 265.283 332.791 265.283C332.405 265.283 331.912 265.486 331.312 265.892V279H326.585V262.238ZM341.893 265.428H340.298V262.238H341.893V260.991C341.893 259.87 341.999 258.971 342.212 258.294C342.424 257.598 342.859 257.057 343.517 256.67C344.193 256.283 345.179 256.09 346.475 256.09C347.287 256.09 348.041 256.138 348.737 256.235V259.744C348.311 259.647 347.973 259.599 347.722 259.599C346.987 259.599 346.62 260.034 346.62 260.904V262.238H348.737V265.428H346.62V279H341.893V265.428ZM356.083 279.29C354.246 279.29 352.806 278.826 351.762 277.898C350.737 276.97 350.225 275.607 350.225 273.809V267.429C350.225 265.631 350.737 264.268 351.762 263.34C352.806 262.412 354.246 261.948 356.083 261.948C357.919 261.948 359.36 262.422 360.404 263.369C361.448 264.297 361.97 265.65 361.97 267.429V273.809C361.97 275.588 361.448 276.951 360.404 277.898C359.36 278.826 357.919 279.29 356.083 279.29ZM356.112 276.158C356.556 276.158 356.866 275.994 357.04 275.665C357.214 275.317 357.301 274.805 357.301 274.128V267.11C357.301 266.433 357.214 265.931 357.04 265.602C356.866 265.254 356.556 265.08 356.112 265.08C355.667 265.08 355.348 265.254 355.155 265.602C354.981 265.95 354.894 266.453 354.894 267.11V274.128C354.894 274.805 354.981 275.317 355.155 275.665C355.348 275.994 355.667 276.158 356.112 276.158ZM364.446 274.534H368.912V279H364.446V274.534ZM377.123 279.29C375.306 279.29 373.885 278.797 372.86 277.811C371.836 276.825 371.323 275.452 371.323 273.693V267.545C371.323 265.766 371.826 264.394 372.831 263.427C373.856 262.441 375.287 261.948 377.123 261.948C378.941 261.948 380.333 262.373 381.299 263.224C382.285 264.075 382.778 265.331 382.778 266.994V268.763H378.225V266.849C378.225 266.211 378.129 265.776 377.935 265.544C377.761 265.293 377.491 265.167 377.123 265.167C376.756 265.167 376.485 265.322 376.311 265.631C376.157 265.921 376.079 266.424 376.079 267.139V274.099C376.079 274.814 376.166 275.317 376.34 275.607C376.514 275.897 376.785 276.042 377.152 276.042C377.52 276.042 377.79 275.916 377.964 275.665C378.138 275.414 378.225 274.988 378.225 274.389V272.156H382.778V274.186C382.778 275.849 382.285 277.115 381.299 277.985C380.313 278.855 378.921 279.29 377.123 279.29ZM390.747 279.29C388.91 279.29 387.47 278.826 386.426 277.898C385.401 276.97 384.889 275.607 384.889 273.809V267.429C384.889 265.631 385.401 264.268 386.426 263.34C387.47 262.412 388.91 261.948 390.747 261.948C392.583 261.948 394.024 262.422 395.068 263.369C396.112 264.297 396.634 265.65 396.634 267.429V273.809C396.634 275.588 396.112 276.951 395.068 277.898C394.024 278.826 392.583 279.29 390.747 279.29ZM390.776 276.158C391.22 276.158 391.53 275.994 391.704 275.665C391.878 275.317 391.965 274.805 391.965 274.128V267.11C391.965 266.433 391.878 265.931 391.704 265.602C391.53 265.254 391.22 265.08 390.776 265.08C390.331 265.08 390.012 265.254 389.819 265.602C389.645 265.95 389.558 266.453 389.558 267.11V274.128C389.558 274.805 389.645 275.317 389.819 275.665C390.012 275.994 390.331 276.158 390.776 276.158ZM399.255 262.238H403.895V263.572C405.017 262.47 406.341 261.919 407.868 261.919C408.545 261.919 409.125 262.093 409.608 262.441C410.111 262.77 410.488 263.263 410.739 263.92C411.919 262.586 413.34 261.919 415.002 261.919C415.988 261.919 416.771 262.286 417.351 263.021C417.951 263.736 418.25 264.722 418.25 265.979V279H413.61V266.472C413.61 266.008 413.523 265.679 413.349 265.486C413.195 265.273 412.953 265.167 412.624 265.167C412.412 265.167 412.16 265.225 411.87 265.341C411.58 265.438 411.31 265.583 411.058 265.776V265.979V279H406.476V266.472C406.476 265.602 406.138 265.167 405.461 265.167C405.017 265.167 404.495 265.37 403.895 265.776V279H399.255V262.238Z" fill="white"/>
<path d="M8.54 292.377C6.278 292.377 4.63467 291.739 3.61 290.463C2.60467 289.168 2.102 287.389 2.102 285.127C2.102 283.87 2.32433 282.759 2.769 281.792C3.233 280.806 3.91933 280.091 4.828 279.646C4.15133 279.143 3.59067 278.447 3.146 277.558C2.70133 276.649 2.479 275.557 2.479 274.281C2.479 272.367 3.001 270.878 4.045 269.815C5.10833 268.732 6.60667 268.191 8.54 268.191C10.4733 268.191 11.9523 268.723 12.977 269.786C14.021 270.849 14.543 272.319 14.543 274.194C14.543 275.528 14.3303 276.659 13.905 277.587C13.499 278.496 12.948 279.182 12.252 279.646C13.1607 280.091 13.8373 280.825 14.282 281.85C14.746 282.855 14.978 284.015 14.978 285.33C14.978 287.534 14.4657 289.264 13.441 290.521C12.4163 291.758 10.7827 292.377 8.54 292.377ZM8.54 277.906C9.50667 277.906 9.99 276.736 9.99 274.397C9.99 273.604 9.86433 272.976 9.613 272.512C9.36167 272.048 9.004 271.816 8.54 271.816C8.05667 271.816 7.67967 272.048 7.409 272.512C7.15767 272.957 7.032 273.575 7.032 274.368C7.032 276.727 7.53467 277.906 8.54 277.906ZM8.54 288.81C9.062 288.81 9.439 288.607 9.671 288.201C9.92233 287.776 10.0673 287.321 10.106 286.838C10.164 286.335 10.193 285.717 10.193 284.982C10.193 283.977 10.077 283.184 9.845 282.604C9.63233 282.024 9.19733 281.734 8.54 281.734C7.86333 281.734 7.41867 282.063 7.206 282.72C6.99333 283.358 6.887 284.247 6.887 285.388C6.887 286.355 6.99333 287.167 7.206 287.824C7.41867 288.481 7.86333 288.81 8.54 288.81ZM17.979 280.313H25.49V283.329H17.979V280.313ZM34.8786 292.348C32.6939 292.348 31.1472 291.855 30.2386 290.869C29.3492 289.864 28.9046 288.336 28.9046 286.287V285.91H33.4286C33.4286 286.954 33.5156 287.679 33.6896 288.085C33.8829 288.491 34.2889 288.694 34.9076 288.694C35.3522 288.694 35.6712 288.559 35.8646 288.288C36.0772 288.017 36.2222 287.563 36.2996 286.925C36.3769 286.287 36.4156 285.32 36.4156 284.025V281.937C36.1642 282.343 35.7679 282.662 35.2266 282.894C34.6852 283.126 34.0762 283.242 33.3996 283.242C31.6982 283.242 30.4416 282.585 29.6296 281.27C28.8369 279.955 28.4406 278.264 28.4406 276.195C28.4406 273.624 28.9432 271.652 29.9486 270.279C30.9732 268.887 32.6166 268.191 34.8786 268.191C37.1019 268.191 38.7356 268.848 39.7796 270.163C40.8236 271.458 41.3456 273.285 41.3456 275.644V284.402C41.3456 286.935 40.8719 288.897 39.9246 290.289C38.9772 291.662 37.2952 292.348 34.8786 292.348ZM34.9366 279.53C35.5166 279.53 36.0096 279.221 36.4156 278.602V274.774C36.4156 273.846 36.3092 273.111 36.0966 272.57C35.8839 272.029 35.4779 271.758 34.8786 271.758C34.2599 271.758 33.8539 272.067 33.6606 272.686C33.4866 273.285 33.3996 274.3 33.3996 275.731C33.3996 276.678 33.4286 277.403 33.4866 277.906C33.5446 278.389 33.6799 278.786 33.8926 279.095C34.1052 279.385 34.4532 279.53 34.9366 279.53ZM50.4541 292.377C48.1921 292.377 46.5487 291.739 45.5241 290.463C44.5187 289.168 44.0161 287.389 44.0161 285.127C44.0161 283.87 44.2384 282.759 44.6831 281.792C45.1471 280.806 45.8334 280.091 46.7421 279.646C46.0654 279.143 45.5047 278.447 45.0601 277.558C44.6154 276.649 44.3931 275.557 44.3931 274.281C44.3931 272.367 44.9151 270.878 45.9591 269.815C47.0224 268.732 48.5207 268.191 50.4541 268.191C52.3874 268.191 53.8664 268.723 54.8911 269.786C55.9351 270.849 56.4571 272.319 56.4571 274.194C56.4571 275.528 56.2444 276.659 55.8191 277.587C55.4131 278.496 54.8621 279.182 54.1661 279.646C55.0747 280.091 55.7514 280.825 56.1961 281.85C56.6601 282.855 56.8921 284.015 56.8921 285.33C56.8921 287.534 56.3797 289.264 55.3551 290.521C54.3304 291.758 52.6967 292.377 50.4541 292.377ZM50.4541 277.906C51.4207 277.906 51.9041 276.736 51.9041 274.397C51.9041 273.604 51.7784 272.976 51.5271 272.512C51.2757 272.048 50.9181 271.816 50.4541 271.816C49.9707 271.816 49.5937 272.048 49.3231 272.512C49.0717 272.957 48.9461 273.575 48.9461 274.368C48.9461 276.727 49.4487 277.906 50.4541 277.906ZM50.4541 288.81C50.9761 288.81 51.3531 288.607 51.5851 288.201C51.8364 287.776 51.9814 287.321 52.0201 286.838C52.0781 286.335 52.1071 285.717 52.1071 284.982C52.1071 283.977 51.9911 283.184 51.7591 282.604C51.5464 282.024 51.1114 281.734 50.4541 281.734C49.7774 281.734 49.3327 282.063 49.1201 282.72C48.9074 283.358 48.8011 284.247 48.8011 285.388C48.8011 286.355 48.9074 287.167 49.1201 287.824C49.3327 288.481 49.7774 288.81 50.4541 288.81ZM65.6061 292.435C63.2668 292.435 61.6041 291.797 60.6181 290.521C59.6321 289.245 59.1391 287.428 59.1391 285.069V284.228H63.9821V285.069C63.9821 286.268 64.0981 287.118 64.3301 287.621C64.5814 288.104 65.0358 288.346 65.6931 288.346C66.3118 288.346 66.7274 288.104 66.9401 287.621C67.1528 287.138 67.2591 286.335 67.2591 285.214C67.2591 283.977 67.0851 283.078 66.7371 282.517C66.3891 281.937 65.7414 281.637 64.7941 281.618H63.8951V278.283H64.6781C65.6641 278.283 66.3408 278.022 66.7081 277.5C67.0754 276.959 67.2591 276.069 67.2591 274.832C67.2591 273.885 67.1334 273.179 66.8821 272.715C66.6308 272.251 66.1861 272.019 65.5481 272.019C64.9488 272.019 64.5331 272.27 64.3011 272.773C64.0884 273.256 63.9821 273.972 63.9821 274.919V276.137H59.1391V274.716C59.1391 272.609 59.6998 270.994 60.8211 269.873C61.9618 268.732 63.5374 268.162 65.5481 268.162C67.5974 268.162 69.1924 268.703 70.3331 269.786C71.4738 270.869 72.0441 272.444 72.0441 274.513C72.0441 275.847 71.7734 276.988 71.2321 277.935C70.6908 278.863 70.0044 279.443 69.1731 279.675C70.0624 280.004 70.7584 280.593 71.2611 281.444C71.7831 282.295 72.0441 283.513 72.0441 285.098C72.0441 287.379 71.5318 289.177 70.5071 290.492C69.4824 291.787 67.8488 292.435 65.6061 292.435ZM74.7896 280.313H82.3006V283.329H74.7896V280.313ZM85.3091 288.578L90.9351 279.936L91.2831 279.414C92.0178 278.312 92.5591 277.394 92.9071 276.659C93.2551 275.905 93.4291 275.122 93.4291 274.31C93.4291 273.653 93.2938 273.16 93.0231 272.831C92.7718 272.483 92.4045 272.309 91.9211 272.309C91.1865 272.309 90.6741 272.599 90.3841 273.179C90.0941 273.74 89.9491 274.523 89.9491 275.528V276.688H85.2511V275.441C85.2511 273.237 85.7828 271.478 86.8461 270.163C87.9288 268.848 89.5915 268.191 91.8341 268.191C93.9028 268.191 95.4785 268.732 96.5611 269.815C97.6631 270.898 98.2141 272.425 98.2141 274.397C98.2141 275.286 98.0691 276.127 97.7791 276.92C97.5085 277.713 97.1798 278.428 96.7931 279.066C96.4065 279.704 95.8071 280.613 94.9951 281.792L90.7031 288.201H97.5761V292H85.3091V288.578ZM106.586 292.435C104.246 292.435 102.584 291.797 101.598 290.521C100.612 289.245 100.119 287.428 100.119 285.069V284.228H104.962V285.069C104.962 286.268 105.078 287.118 105.31 287.621C105.561 288.104 106.015 288.346 106.673 288.346C107.291 288.346 107.707 288.104 107.92 287.621C108.132 287.138 108.239 286.335 108.239 285.214C108.239 283.977 108.065 283.078 107.717 282.517C107.369 281.937 106.721 281.637 105.774 281.618H104.875V278.283H105.658C106.644 278.283 107.32 278.022 107.688 277.5C108.055 276.959 108.239 276.069 108.239 274.832C108.239 273.885 108.113 273.179 107.862 272.715C107.61 272.251 107.166 272.019 106.528 272.019C105.928 272.019 105.513 272.27 105.281 272.773C105.068 273.256 104.962 273.972 104.962 274.919V276.137H100.119V274.716C100.119 272.609 100.679 270.994 101.801 269.873C102.941 268.732 104.517 268.162 106.528 268.162C108.577 268.162 110.172 268.703 111.313 269.786C112.453 270.869 113.024 272.444 113.024 274.513C113.024 275.847 112.753 276.988 112.212 277.935C111.67 278.863 110.984 279.443 110.153 279.675C111.042 280.004 111.738 280.593 112.241 281.444C112.763 282.295 113.024 283.513 113.024 285.098C113.024 287.379 112.511 289.177 111.487 290.492C110.462 291.787 108.828 292.435 106.586 292.435ZM115.102 288.578L120.728 279.936L121.076 279.414C121.811 278.312 122.352 277.394 122.7 276.659C123.048 275.905 123.222 275.122 123.222 274.31C123.222 273.653 123.087 273.16 122.816 272.831C122.565 272.483 122.197 272.309 121.714 272.309C120.979 272.309 120.467 272.599 120.177 273.179C119.887 273.74 119.742 274.523 119.742 275.528V276.688H115.044V275.441C115.044 273.237 115.576 271.478 116.639 270.163C117.722 268.848 119.384 268.191 121.627 268.191C123.696 268.191 125.271 268.732 126.354 269.815C127.456 270.898 128.007 272.425 128.007 274.397C128.007 275.286 127.862 276.127 127.572 276.92C127.301 277.713 126.973 278.428 126.586 279.066C126.199 279.704 125.6 280.613 124.788 281.792L120.496 288.201H127.369V292H115.102V288.578ZM130.666 280.313H138.177V283.329H130.666V280.313ZM147.536 292.377C145.274 292.377 143.631 291.739 142.606 290.463C141.601 289.168 141.098 287.389 141.098 285.127C141.098 283.87 141.32 282.759 141.765 281.792C142.229 280.806 142.915 280.091 143.824 279.646C143.147 279.143 142.587 278.447 142.142 277.558C141.697 276.649 141.475 275.557 141.475 274.281C141.475 272.367 141.997 270.878 143.041 269.815C144.104 268.732 145.603 268.191 147.536 268.191C149.469 268.191 150.948 268.723 151.973 269.786C153.017 270.849 153.539 272.319 153.539 274.194C153.539 275.528 153.326 276.659 152.901 277.587C152.495 278.496 151.944 279.182 151.248 279.646C152.157 280.091 152.833 280.825 153.278 281.85C153.742 282.855 153.974 284.015 153.974 285.33C153.974 287.534 153.462 289.264 152.437 290.521C151.412 291.758 149.779 292.377 147.536 292.377ZM147.536 277.906C148.503 277.906 148.986 276.736 148.986 274.397C148.986 273.604 148.86 272.976 148.609 272.512C148.358 272.048 148 271.816 147.536 271.816C147.053 271.816 146.676 272.048 146.405 272.512C146.154 272.957 146.028 273.575 146.028 274.368C146.028 276.727 146.531 277.906 147.536 277.906ZM147.536 288.81C148.058 288.81 148.435 288.607 148.667 288.201C148.918 287.776 149.063 287.321 149.102 286.838C149.16 286.335 149.189 285.717 149.189 284.982C149.189 283.977 149.073 283.184 148.841 282.604C148.628 282.024 148.193 281.734 147.536 281.734C146.859 281.734 146.415 282.063 146.202 282.72C145.989 283.358 145.883 284.247 145.883 285.388C145.883 286.355 145.989 287.167 146.202 287.824C146.415 288.481 146.859 288.81 147.536 288.81ZM163.123 292.348C160.919 292.348 159.285 291.652 158.222 290.26C157.159 288.868 156.627 286.993 156.627 284.634V276.137C156.627 273.585 157.091 271.623 158.019 270.25C158.966 268.877 160.658 268.191 163.094 268.191C165.259 268.191 166.796 268.684 167.705 269.67C168.614 270.656 169.068 272.174 169.068 274.223L169.097 274.629H164.544C164.544 273.585 164.457 272.86 164.283 272.454C164.128 272.048 163.742 271.845 163.123 271.845C162.678 271.845 162.34 271.98 162.108 272.251C161.895 272.522 161.75 272.976 161.673 273.614C161.596 274.252 161.557 275.219 161.557 276.514V278.602C161.808 278.196 162.205 277.877 162.746 277.645C163.287 277.413 163.906 277.297 164.602 277.297C166.303 277.297 167.55 277.916 168.343 279.153C169.136 280.39 169.532 282.024 169.532 284.054C169.532 286.722 169.049 288.771 168.082 290.202C167.115 291.633 165.462 292.348 163.123 292.348ZM163.181 288.781C163.8 288.781 164.196 288.481 164.37 287.882C164.563 287.283 164.66 286.258 164.66 284.808C164.66 283.861 164.631 283.145 164.573 282.662C164.515 282.159 164.38 281.763 164.167 281.473C163.954 281.164 163.606 281.009 163.123 281.009C162.794 281.009 162.485 281.106 162.195 281.299C161.905 281.492 161.692 281.705 161.557 281.937V285.765C161.557 287.776 162.098 288.781 163.181 288.781ZM172.58 280.313H180.091V283.329H172.58V280.313ZM189.45 292.377C187.188 292.377 185.545 291.739 184.52 290.463C183.515 289.168 183.012 287.389 183.012 285.127C183.012 283.87 183.234 282.759 183.679 281.792C184.143 280.806 184.829 280.091 185.738 279.646C185.061 279.143 184.501 278.447 184.056 277.558C183.611 276.649 183.389 275.557 183.389 274.281C183.389 272.367 183.911 270.878 184.955 269.815C186.018 268.732 187.517 268.191 189.45 268.191C191.383 268.191 192.862 268.723 193.887 269.786C194.931 270.849 195.453 272.319 195.453 274.194C195.453 275.528 195.24 276.659 194.815 277.587C194.409 278.496 193.858 279.182 193.162 279.646C194.071 280.091 194.747 280.825 195.192 281.85C195.656 282.855 195.888 284.015 195.888 285.33C195.888 287.534 195.376 289.264 194.351 290.521C193.326 291.758 191.693 292.377 189.45 292.377ZM189.45 277.906C190.417 277.906 190.9 276.736 190.9 274.397C190.9 273.604 190.774 272.976 190.523 272.512C190.272 272.048 189.914 271.816 189.45 271.816C188.967 271.816 188.59 272.048 188.319 272.512C188.068 272.957 187.942 273.575 187.942 274.368C187.942 276.727 188.445 277.906 189.45 277.906ZM189.45 288.81C189.972 288.81 190.349 288.607 190.581 288.201C190.832 287.776 190.977 287.321 191.016 286.838C191.074 286.335 191.103 285.717 191.103 284.982C191.103 283.977 190.987 283.184 190.755 282.604C190.542 282.024 190.107 281.734 189.45 281.734C188.773 281.734 188.329 282.063 188.116 282.72C187.903 283.358 187.797 284.247 187.797 285.388C187.797 286.355 187.903 287.167 188.116 287.824C188.329 288.481 188.773 288.81 189.45 288.81ZM205.037 292.348C202.833 292.348 201.2 291.652 200.136 290.26C199.073 288.868 198.541 286.993 198.541 284.634V276.137C198.541 273.585 199.005 271.623 199.933 270.25C200.881 268.877 202.572 268.191 205.008 268.191C207.174 268.191 208.711 268.684 209.619 269.67C210.528 270.656 210.982 272.174 210.982 274.223L211.011 274.629H206.458C206.458 273.585 206.371 272.86 206.197 272.454C206.043 272.048 205.656 271.845 205.037 271.845C204.593 271.845 204.254 271.98 204.022 272.251C203.81 272.522 203.665 272.976 203.587 273.614C203.51 274.252 203.471 275.219 203.471 276.514V278.602C203.723 278.196 204.119 277.877 204.66 277.645C205.202 277.413 205.82 277.297 206.516 277.297C208.218 277.297 209.465 277.916 210.257 279.153C211.05 280.39 211.446 282.024 211.446 284.054C211.446 286.722 210.963 288.771 209.996 290.202C209.03 291.633 207.377 292.348 205.037 292.348ZM205.095 288.781C205.714 288.781 206.11 288.481 206.284 287.882C206.478 287.283 206.574 286.258 206.574 284.808C206.574 283.861 206.545 283.145 206.487 282.662C206.429 282.159 206.294 281.763 206.081 281.473C205.869 281.164 205.521 281.009 205.037 281.009C204.709 281.009 204.399 281.106 204.109 281.299C203.819 281.492 203.607 281.705 203.471 281.937V285.765C203.471 287.776 204.013 288.781 205.095 288.781Z" fill="white"/>
<path d="M4.857 232.367H1.319V228.51H13.586V232.367H10.077V252H4.857V232.367ZM20.8741 252.29C19.0374 252.29 17.6067 251.807 16.5821 250.84C15.5574 249.854 15.0451 248.472 15.0451 246.693V240.545C15.0451 238.766 15.5574 237.394 16.5821 236.427C17.6067 235.441 19.0374 234.948 20.8741 234.948C22.7301 234.948 24.1221 235.422 25.0501 236.369C25.9781 237.316 26.4421 238.708 26.4421 240.545V243.909H19.7141V247.128C19.7141 248.327 20.1007 248.926 20.8741 248.926C21.6861 248.926 22.0921 248.385 22.0921 247.302V245.533H26.4421V247.157C26.4421 248.839 25.9491 250.115 24.9631 250.985C23.9964 251.855 22.6334 252.29 20.8741 252.29ZM22.0921 241.705V240.023C22.0921 239.404 21.9761 238.969 21.7441 238.718C21.5314 238.447 21.2317 238.312 20.8451 238.312C20.4777 238.312 20.1974 238.457 20.0041 238.747C19.8107 239.037 19.7141 239.549 19.7141 240.284V241.705H22.0921ZM27.9131 248.839C28.7638 248.839 29.4018 248.665 29.8271 248.317C30.2525 247.95 30.5715 247.331 30.7841 246.461C30.9968 245.591 31.1708 244.257 31.3061 242.459L31.8571 235.238H42.5001V252H37.7731V238.428H35.8591L35.4531 243.387C35.2791 245.804 34.9795 247.621 34.5541 248.839C34.1481 250.057 33.5005 250.917 32.6111 251.42C31.7218 251.923 30.4265 252.174 28.7251 252.174H27.9131V248.839ZM50.9502 252.29C49.1136 252.29 47.6829 251.807 46.6582 250.84C45.6336 249.854 45.1212 248.472 45.1212 246.693V240.545C45.1212 238.766 45.6336 237.394 46.6582 236.427C47.6829 235.441 49.1136 234.948 50.9502 234.948C52.8062 234.948 54.1982 235.422 55.1262 236.369C56.0542 237.316 56.5182 238.708 56.5182 240.545V243.909H49.7902V247.128C49.7902 248.327 50.1769 248.926 50.9502 248.926C51.7622 248.926 52.1682 248.385 52.1682 247.302V245.533H56.5182V247.157C56.5182 248.839 56.0252 250.115 55.0392 250.985C54.0726 251.855 52.7096 252.29 50.9502 252.29ZM52.1682 241.705V240.023C52.1682 239.404 52.0522 238.969 51.8202 238.718C51.6076 238.447 51.3079 238.312 50.9212 238.312C50.5539 238.312 50.2736 238.457 50.0802 238.747C49.8869 239.037 49.7902 239.549 49.7902 240.284V241.705H52.1682ZM65.6453 251.768H65.1523C64.205 251.768 63.248 251.584 62.2813 251.217C61.3146 250.83 60.493 250.192 59.8163 249.303C59.1396 248.414 58.8013 247.254 58.8013 245.823V241.096C58.8013 239.801 59.1106 238.718 59.7293 237.848C60.348 236.978 61.1406 236.34 62.1073 235.934C63.0933 235.509 64.1083 235.296 65.1523 235.296H65.6453V228.539H69.7343V235.296H70.3143C71.3776 235.296 72.383 235.509 73.3303 235.934C74.297 236.34 75.08 236.978 75.6793 237.848C76.298 238.718 76.6073 239.801 76.6073 241.096V245.823C76.6073 247.254 76.269 248.414 75.5923 249.303C74.9156 250.192 74.094 250.83 73.1273 251.217C72.18 251.584 71.2423 251.768 70.3143 251.768H69.7343V256.988H65.6453V251.768ZM65.6453 248.955V237.935H65.2393C64.64 237.935 64.147 238.177 63.7603 238.66C63.393 239.124 63.2093 239.801 63.2093 240.69V246.142C63.2093 247.031 63.393 247.727 63.7603 248.23C64.1276 248.713 64.6303 248.955 65.2683 248.955H65.6453ZM70.0533 248.955C70.6526 248.955 71.1553 248.704 71.5613 248.201C71.9866 247.698 72.1993 247.012 72.1993 246.142V240.69C72.1993 239.82 71.9963 239.143 71.5903 238.66C71.2036 238.177 70.701 237.935 70.0823 237.935H69.7343V248.955H70.0533ZM84.822 252.29C82.9853 252.29 81.545 251.826 80.501 250.898C79.4763 249.97 78.964 248.607 78.964 246.809V240.429C78.964 238.631 79.4763 237.268 80.501 236.34C81.545 235.412 82.9853 234.948 84.822 234.948C86.6587 234.948 88.099 235.422 89.143 236.369C90.187 237.297 90.709 238.65 90.709 240.429V246.809C90.709 248.588 90.187 249.951 89.143 250.898C88.099 251.826 86.6587 252.29 84.822 252.29ZM84.851 249.158C85.2957 249.158 85.605 248.994 85.779 248.665C85.953 248.317 86.04 247.805 86.04 247.128V240.11C86.04 239.433 85.953 238.931 85.779 238.602C85.605 238.254 85.2957 238.08 84.851 238.08C84.4063 238.08 84.0873 238.254 83.894 238.602C83.72 238.95 83.633 239.453 83.633 240.11V247.128C83.633 247.805 83.72 248.317 83.894 248.665C84.0873 248.994 84.4063 249.158 84.851 249.158ZM93.3306 235.238H98.0576V241.734H100.871V235.238H105.627V252H100.871V244.982H98.0576V252H93.3306V235.238Z" fill="white"/>
<path d="M6.827 2.51H12.018V12.022H15.643V2.51H20.863V26H15.643V15.734H12.018V26H6.827V2.51ZM24.1792 9.238H27.9202V18.199L32.2992 9.238H35.9822V26H32.1542V17.126L27.8912 26H24.1792V9.238ZM40.9648 17.561L37.8328 9.238H41.9218L44.5898 17.184H44.9378V9.238H48.8818V17.184H49.2008L52.0428 9.238H56.1898L52.8548 17.561L56.3638 26H52.4488L49.2008 17.909H48.8818V26H44.9378V17.909H44.5898L41.5448 26H37.6298L40.9648 17.561ZM58.0503 9.238H62.7773V15.734H65.5903V9.238H70.3463V26H65.5903V18.982H62.7773V26H58.0503V9.238ZM78.7676 26.29C76.931 26.29 75.5003 25.8067 74.4756 24.84C73.451 23.854 72.9386 22.4717 72.9386 20.693V14.545C72.9386 12.7663 73.451 11.3937 74.4756 10.427C75.5003 9.441 76.931 8.948 78.7676 8.948C80.6236 8.948 82.0156 9.42167 82.9436 10.369C83.8716 11.3163 84.3356 12.7083 84.3356 14.545V17.909H77.6076V21.128C77.6076 22.3267 77.9943 22.926 78.7676 22.926C79.5796 22.926 79.9856 22.3847 79.9856 21.302V19.533H84.3356V21.157C84.3356 22.839 83.8426 24.115 82.8566 24.985C81.89 25.855 80.527 26.29 78.7676 26.29ZM79.9856 15.705V14.023C79.9856 13.4043 79.8696 12.9693 79.6376 12.718C79.425 12.4473 79.1253 12.312 78.7386 12.312C78.3713 12.312 78.091 12.457 77.8976 12.747C77.7043 13.037 77.6076 13.5493 77.6076 14.284V15.705H79.9856ZM87.2857 14.313H94.7967V17.329H87.2857V14.313ZM96.8192 22.346C97.9212 22.3653 98.6752 22.2203 99.0812 21.911C99.4872 21.6017 99.7675 20.9637 99.9222 19.997C100.096 19.011 100.29 17.0777 100.502 14.197L100.589 13.008L101.343 2.51H113.784V26H108.622V6.483H106.041L105.577 13.994C105.326 17.6093 105.055 20.1613 104.765 21.65C104.475 23.1193 103.857 24.2213 102.909 24.956C101.981 25.6713 100.444 26.029 98.2982 26.029C97.6602 26.029 97.1672 26.0193 96.8192 26V22.346ZM117.59 27.595C118.518 27.595 119.195 27.4887 119.62 27.276C120.065 27.0827 120.287 26.7153 120.287 26.174C120.287 25.6907 120.084 24.753 119.678 23.361L115.734 9.238H120.171L122.288 18.924L123.883 9.238H128.349L124.492 26.406C124.125 28.0493 123.458 29.1997 122.491 29.857C121.525 30.5337 120.249 30.872 118.663 30.872H117.59V27.595ZM130.125 9.238H138.477V12.428H134.852V26H130.125V9.238ZM145.633 26.29C143.796 26.29 142.356 25.826 141.312 24.898C140.287 23.97 139.775 22.607 139.775 20.809V14.429C139.775 12.631 140.287 11.268 141.312 10.34C142.356 9.412 143.796 8.948 145.633 8.948C147.469 8.948 148.91 9.42167 149.954 10.369C150.998 11.297 151.52 12.6503 151.52 14.429V20.809C151.52 22.5877 150.998 23.9507 149.954 24.898C148.91 25.826 147.469 26.29 145.633 26.29ZM145.662 23.158C146.106 23.158 146.416 22.9937 146.59 22.665C146.764 22.317 146.851 21.8047 146.851 21.128V14.11C146.851 13.4333 146.764 12.9307 146.59 12.602C146.416 12.254 146.106 12.08 145.662 12.08C145.217 12.08 144.898 12.254 144.705 12.602C144.531 12.95 144.444 13.4527 144.444 14.11V21.128C144.444 21.8047 144.531 22.317 144.705 22.665C144.898 22.9937 145.217 23.158 145.662 23.158ZM154.141 9.238H160.086C161.691 9.238 162.928 9.412 163.798 9.76C164.668 10.0887 165.258 10.5527 165.567 11.152C165.876 11.7513 166.031 12.5053 166.031 13.414C166.031 14.458 165.809 15.2507 165.364 15.792C164.919 16.314 164.281 16.691 163.45 16.923C164.591 17.213 165.374 17.6963 165.799 18.373C166.224 19.0497 166.437 19.9777 166.437 21.157C166.437 22.2783 166.224 23.1967 165.799 23.912C165.393 24.608 164.707 25.13 163.74 25.478C162.773 25.826 161.468 26 159.825 26H154.141V9.238ZM160.028 15.85C160.55 15.85 160.927 15.6857 161.159 15.357C161.391 15.009 161.507 14.4967 161.507 13.82C161.507 13.124 161.381 12.5923 161.13 12.225C160.879 11.8577 160.395 11.674 159.68 11.674H158.839V15.85H160.028ZM159.622 23.39C160.144 23.39 160.55 23.3513 160.84 23.274C161.149 23.1773 161.391 22.955 161.565 22.607C161.758 22.259 161.855 21.7273 161.855 21.012C161.855 20.2 161.768 19.6103 161.594 19.243C161.42 18.8563 161.188 18.6243 160.898 18.547C160.608 18.4503 160.192 18.402 159.651 18.402H158.839V23.39H159.622ZM172.177 26.29C171.365 26.29 170.659 26.0967 170.06 25.71C169.48 25.304 169.035 24.7917 168.726 24.173C168.436 23.535 168.291 22.8777 168.291 22.201C168.291 20.9057 168.62 19.8423 169.277 19.011C169.934 18.1797 170.717 17.532 171.626 17.068C172.554 16.604 173.743 16.1207 175.193 15.618V13.936C175.193 13.4527 175.116 13.0853 174.961 12.834C174.826 12.5827 174.574 12.457 174.207 12.457C173.84 12.457 173.579 12.573 173.424 12.805C173.269 13.037 173.182 13.3657 173.163 13.791L173.047 15.009L168.639 14.835C168.716 12.8243 169.248 11.3453 170.234 10.398C171.22 9.43133 172.689 8.948 174.642 8.948C176.285 8.948 177.542 9.412 178.412 10.34C179.282 11.2487 179.717 12.4667 179.717 13.994V21.824C179.717 23.5253 179.814 24.9173 180.007 26H175.773C175.599 24.7047 175.473 23.912 175.396 23.622C175.164 24.3953 174.777 25.0333 174.236 25.536C173.695 26.0387 173.008 26.29 172.177 26.29ZM173.859 23.1C174.342 23.1 174.787 22.8197 175.193 22.259V17.677C174.323 18.1797 173.666 18.7113 173.221 19.272C172.776 19.8133 172.554 20.4803 172.554 21.273C172.554 21.8337 172.67 22.2783 172.902 22.607C173.134 22.9357 173.453 23.1 173.859 23.1ZM184.142 19.04C183.465 18.692 182.953 18.112 182.605 17.3C182.257 16.488 182.083 15.5503 182.083 14.487C182.083 12.863 182.576 11.587 183.562 10.659C184.567 9.71167 186.143 9.238 188.289 9.238H194.524V26H189.826V20.026C189.343 20.026 188.869 20.0067 188.405 19.968L186.52 26H181.532L184.142 19.04ZM189.826 17.242V11.906H189.623C188.56 11.906 187.748 12.1283 187.187 12.573C186.646 12.9983 186.375 13.6267 186.375 14.458C186.375 16.2753 187.458 17.2033 189.623 17.242H189.826ZM205.355 27.595C206.283 27.595 206.96 27.4887 207.385 27.276C207.83 27.0827 208.052 26.7153 208.052 26.174C208.052 25.6907 207.849 24.753 207.443 23.361L203.499 9.238H207.936L210.053 18.924L211.648 9.238H216.114L212.257 26.406C211.89 28.0493 211.223 29.1997 210.256 29.857C209.289 30.5337 208.013 30.872 206.428 30.872H205.355V27.595ZM216.08 22.839C216.931 22.839 217.569 22.665 217.994 22.317C218.419 21.9497 218.738 21.331 218.951 20.461C219.164 19.591 219.338 18.257 219.473 16.459L220.024 9.238H230.667V26H225.94V12.428H224.026L223.62 17.387C223.446 19.8037 223.146 21.621 222.721 22.839C222.315 24.057 221.667 24.9173 220.778 25.42C219.889 25.9227 218.593 26.174 216.892 26.174H216.08V22.839ZM233.636 9.238H237.377V18.199L241.756 9.238H245.439V26H241.611V17.126L237.348 26H233.636V9.238ZM259.035 26H248.334V9.238H253.09V23.1H255.613V9.238H260.34V23.1H262.747V30.553H259.354L259.035 26ZM268.268 26.29C267.456 26.29 266.75 26.0967 266.151 25.71C265.571 25.304 265.126 24.7917 264.817 24.173C264.527 23.535 264.382 22.8777 264.382 22.201C264.382 20.9057 264.711 19.8423 265.368 19.011C266.025 18.1797 266.808 17.532 267.717 17.068C268.645 16.604 269.834 16.1207 271.284 15.618V13.936C271.284 13.4527 271.207 13.0853 271.052 12.834C270.917 12.5827 270.665 12.457 270.298 12.457C269.931 12.457 269.67 12.573 269.515 12.805C269.36 13.037 269.273 13.3657 269.254 13.791L269.138 15.009L264.73 14.835C264.807 12.8243 265.339 11.3453 266.325 10.398C267.311 9.43133 268.78 8.948 270.733 8.948C272.376 8.948 273.633 9.412 274.503 10.34C275.373 11.2487 275.808 12.4667 275.808 13.994V21.824C275.808 23.5253 275.905 24.9173 276.098 26H271.864C271.69 24.7047 271.564 23.912 271.487 23.622C271.255 24.3953 270.868 25.0333 270.327 25.536C269.786 26.0387 269.099 26.29 268.268 26.29ZM269.95 23.1C270.433 23.1 270.878 22.8197 271.284 22.259V17.677C270.414 18.1797 269.757 18.7113 269.312 19.272C268.867 19.8133 268.645 20.4803 268.645 21.273C268.645 21.8337 268.761 22.2783 268.993 22.607C269.225 22.9357 269.544 23.1 269.95 23.1ZM278.812 28.523C279.431 28.3683 279.924 28.0977 280.291 27.711C280.678 27.3437 280.871 26.7733 280.871 26H278.377V21.534H282.872V25.391C282.833 28.3103 281.577 29.8667 279.102 30.06L278.812 28.523ZM299.029 26.435C296.69 26.435 295.027 25.797 294.041 24.521C293.055 23.245 292.562 21.4277 292.562 19.069V18.228H297.405V19.069C297.405 20.2677 297.521 21.1183 297.753 21.621C298.004 22.1043 298.459 22.346 299.116 22.346C299.735 22.346 300.15 22.1043 300.363 21.621C300.576 21.1377 300.682 20.3353 300.682 19.214C300.682 17.9767 300.508 17.0777 300.16 16.517C299.812 15.937 299.164 15.6373 298.217 15.618H297.318V12.283H298.101C299.087 12.283 299.764 12.022 300.131 11.5C300.498 10.9587 300.682 10.0693 300.682 8.832C300.682 7.88467 300.556 7.179 300.305 6.715C300.054 6.251 299.609 6.019 298.971 6.019C298.372 6.019 297.956 6.27033 297.724 6.773C297.511 7.25633 297.405 7.97167 297.405 8.919V10.137H292.562V8.716C292.562 6.60867 293.123 4.99433 294.244 3.873C295.385 2.73233 296.96 2.162 298.971 2.162C301.02 2.162 302.615 2.70333 303.756 3.786C304.897 4.86867 305.467 6.44433 305.467 8.513C305.467 9.847 305.196 10.9877 304.655 11.935C304.114 12.863 303.427 13.443 302.596 13.675C303.485 14.0037 304.181 14.5933 304.684 15.444C305.206 16.2947 305.467 17.5127 305.467 19.098C305.467 21.3793 304.955 23.1773 303.93 24.492C302.905 25.7873 301.272 26.435 299.029 26.435ZM313.925 26.435C311.586 26.435 309.923 25.797 308.937 24.521C307.951 23.245 307.458 21.4277 307.458 19.069V18.228H312.301V19.069C312.301 20.2677 312.417 21.1183 312.649 21.621C312.901 22.1043 313.355 22.346 314.012 22.346C314.631 22.346 315.047 22.1043 315.259 21.621C315.472 21.1377 315.578 20.3353 315.578 19.214C315.578 17.9767 315.404 17.0777 315.056 16.517C314.708 15.937 314.061 15.6373 313.113 15.618H312.214V12.283H312.997C313.983 12.283 314.66 12.022 315.027 11.5C315.395 10.9587 315.578 10.0693 315.578 8.832C315.578 7.88467 315.453 7.179 315.201 6.715C314.95 6.251 314.505 6.019 313.867 6.019C313.268 6.019 312.852 6.27033 312.62 6.773C312.408 7.25633 312.301 7.97167 312.301 8.919V10.137H307.458V8.716C307.458 6.60867 308.019 4.99433 309.14 3.873C310.281 2.73233 311.857 2.162 313.867 2.162C315.917 2.162 317.512 2.70333 318.652 3.786C319.793 4.86867 320.363 6.44433 320.363 8.513C320.363 9.847 320.093 10.9877 319.551 11.935C319.01 12.863 318.324 13.443 317.492 13.675C318.382 14.0037 319.078 14.5933 319.58 15.444C320.102 16.2947 320.363 17.5127 320.363 19.098C320.363 21.3793 319.851 23.1773 318.826 24.492C317.802 25.7873 316.168 26.435 313.925 26.435ZM322.935 28.523C323.554 28.3683 324.047 28.0977 324.414 27.711C324.801 27.3437 324.994 26.7733 324.994 26H322.5V21.534H326.995V25.391C326.956 28.3103 325.7 29.8667 323.225 30.06L322.935 28.523ZM6.479 34.238H14.831V37.428H11.206V51H6.479V34.238ZM16.5293 46.534H20.9953V51H16.5293V46.534ZM26.1324 31.367H22.5944V27.51H34.8614V31.367H31.3524V51H26.1324V31.367ZM42.1785 51.29C40.3418 51.29 38.9015 50.826 37.8575 49.898C36.8328 48.97 36.3205 47.607 36.3205 45.809V39.429C36.3205 37.631 36.8328 36.268 37.8575 35.34C38.9015 34.412 40.3418 33.948 42.1785 33.948C44.0151 33.948 45.4555 34.4217 46.4995 35.369C47.5435 36.297 48.0655 37.6503 48.0655 39.429V45.809C48.0655 47.5877 47.5435 48.9507 46.4995 49.898C45.4555 50.826 44.0151 51.29 42.1785 51.29ZM42.2075 48.158C42.6521 48.158 42.9615 47.9937 43.1355 47.665C43.3095 47.317 43.3965 46.8047 43.3965 46.128V39.11C43.3965 38.4333 43.3095 37.9307 43.1355 37.602C42.9615 37.254 42.6521 37.08 42.2075 37.08C41.7628 37.08 41.4438 37.254 41.2505 37.602C41.0765 37.95 40.9895 38.4527 40.9895 39.11V46.128C40.9895 46.8047 41.0765 47.317 41.2505 47.665C41.4438 47.9937 41.7628 48.158 42.2075 48.158ZM50.716 34.238H54.196L57.618 42.271L61.069 34.238H64.549L64.607 51H60.924V42.184L58.343 48.39H56.951L54.341 42.155V51H50.658L50.716 34.238ZM73.0179 51.29C71.2006 51.29 69.7796 50.797 68.7549 49.811C67.7302 48.825 67.2179 47.4523 67.2179 45.693V39.545C67.2179 37.7663 67.7206 36.3937 68.7259 35.427C69.7506 34.441 71.1812 33.948 73.0179 33.948C74.8352 33.948 76.2272 34.3733 77.1939 35.224C78.1799 36.0747 78.6729 37.3313 78.6729 38.994V40.763H74.1199V38.849C74.1199 38.211 74.0232 37.776 73.8299 37.544C73.6559 37.2927 73.3852 37.167 73.0179 37.167C72.6506 37.167 72.3799 37.3217 72.2059 37.631C72.0512 37.921 71.9739 38.4237 71.9739 39.139V46.099C71.9739 46.8143 72.0609 47.317 72.2349 47.607C72.4089 47.897 72.6796 48.042 73.0469 48.042C73.4142 48.042 73.6849 47.9163 73.8589 47.665C74.0329 47.4137 74.1199 46.9883 74.1199 46.389V44.156H78.6729V46.186C78.6729 47.8487 78.1799 49.115 77.1939 49.985C76.2079 50.855 74.8159 51.29 73.0179 51.29ZM81.1313 34.238H85.8583V40.85H86.5543L89.1063 34.238H94.1813L90.8753 42.155L94.2683 51H89.2803L86.5543 43.576H85.8583V51H81.1313V34.238Z" fill="white"/>
<path d="M12.569 182.348C10.3843 182.348 8.83767 181.855 7.929 180.869C7.03967 179.864 6.595 178.336 6.595 176.287V175.91H11.119C11.119 176.954 11.206 177.679 11.38 178.085C11.5733 178.491 11.9793 178.694 12.598 178.694C13.0427 178.694 13.3617 178.559 13.555 178.288C13.7677 178.017 13.9127 177.563 13.99 176.925C14.0673 176.287 14.106 175.32 14.106 174.025V171.937C13.8547 172.343 13.4583 172.662 12.917 172.894C12.3757 173.126 11.7667 173.242 11.09 173.242C9.38867 173.242 8.132 172.585 7.32 171.27C6.52733 169.955 6.131 168.264 6.131 166.195C6.131 163.624 6.63367 161.652 7.639 160.279C8.66367 158.887 10.307 158.191 12.569 158.191C14.7923 158.191 16.426 158.848 17.47 160.163C18.514 161.458 19.036 163.285 19.036 165.644V174.402C19.036 176.935 18.5623 178.897 17.615 180.289C16.6677 181.662 14.9857 182.348 12.569 182.348ZM12.627 169.53C13.207 169.53 13.7 169.221 14.106 168.602V164.774C14.106 163.846 13.9997 163.111 13.787 162.57C13.5743 162.029 13.1683 161.758 12.569 161.758C11.9503 161.758 11.5443 162.067 11.351 162.686C11.177 163.285 11.09 164.3 11.09 165.731C11.09 166.678 11.119 167.403 11.177 167.906C11.235 168.389 11.3703 168.786 11.583 169.095C11.7957 169.385 12.1437 169.53 12.627 169.53ZM22.5475 165.644H26.9555V170.052H22.5475V165.644ZM22.5475 175.968H26.9555V180.376H22.5475V175.968ZM36.2448 182.435C33.9054 182.435 32.2428 181.797 31.2568 180.521C30.2708 179.245 29.7778 177.428 29.7778 175.069V174.228H34.6208V175.069C34.6208 176.268 34.7368 177.118 34.9688 177.621C35.2201 178.104 35.6744 178.346 36.3318 178.346C36.9504 178.346 37.3661 178.104 37.5788 177.621C37.7914 177.138 37.8978 176.335 37.8978 175.214C37.8978 173.977 37.7238 173.078 37.3758 172.517C37.0278 171.937 36.3801 171.637 35.4328 171.618H34.5338V168.283H35.3168C36.3028 168.283 36.9794 168.022 37.3468 167.5C37.7141 166.959 37.8978 166.069 37.8978 164.832C37.8978 163.885 37.7721 163.179 37.5208 162.715C37.2694 162.251 36.8248 162.019 36.1868 162.019C35.5874 162.019 35.1718 162.27 34.9398 162.773C34.7271 163.256 34.6208 163.972 34.6208 164.919V166.137H29.7778V164.716C29.7778 162.609 30.3384 160.994 31.4598 159.873C32.6004 158.732 34.1761 158.162 36.1868 158.162C38.2361 158.162 39.8311 158.703 40.9718 159.786C42.1124 160.869 42.6828 162.444 42.6828 164.513C42.6828 165.847 42.4121 166.988 41.8708 167.935C41.3294 168.863 40.6431 169.443 39.8118 169.675C40.7011 170.004 41.3971 170.593 41.8998 171.444C42.4218 172.295 42.6828 173.513 42.6828 175.098C42.6828 177.379 42.1704 179.177 41.1458 180.492C40.1211 181.787 38.4874 182.435 36.2448 182.435ZM51.5473 182.435C49.4786 182.435 47.8933 181.826 46.7913 180.608C45.6893 179.39 45.1383 177.756 45.1383 175.707V165.064C45.1383 162.918 45.6699 161.236 46.7333 160.018C47.8159 158.781 49.4206 158.162 51.5473 158.162C53.6739 158.162 55.2689 158.781 56.3323 160.018C57.3956 161.236 57.9273 162.918 57.9273 165.064V175.707C57.9273 177.737 57.3666 179.371 56.2453 180.608C55.1433 181.826 53.5773 182.435 51.5473 182.435ZM51.5473 178.114C52.1466 178.114 52.5333 177.863 52.7073 177.36C52.9006 176.857 52.9973 176.268 52.9973 175.591V165.18C52.9973 164.407 52.9103 163.769 52.7363 163.266C52.5816 162.744 52.1853 162.483 51.5473 162.483C50.9093 162.483 50.5033 162.734 50.3293 163.237C50.1746 163.74 50.0973 164.387 50.0973 165.18V175.591C50.0973 177.273 50.5806 178.114 51.5473 178.114ZM68.7925 170.313H76.3035V173.329H68.7925V170.313ZM89.4 163.295C89.1873 163.411 88.6266 163.662 87.718 164.049C87.5633 164.107 87.3216 164.204 86.993 164.339C86.6643 164.474 86.3936 164.6 86.181 164.716V161.12C88.501 159.921 89.922 159.051 90.444 158.51H94.243V182H89.4V163.295ZM104.354 182.377C102.092 182.377 100.449 181.739 99.4245 180.463C98.4191 179.168 97.9165 177.389 97.9165 175.127C97.9165 173.87 98.1388 172.759 98.5835 171.792C99.0475 170.806 99.7338 170.091 100.642 169.646C99.9658 169.143 99.4051 168.447 98.9605 167.558C98.5158 166.649 98.2935 165.557 98.2935 164.281C98.2935 162.367 98.8155 160.878 99.8595 159.815C100.923 158.732 102.421 158.191 104.354 158.191C106.288 158.191 107.767 158.723 108.791 159.786C109.835 160.849 110.357 162.319 110.357 164.194C110.357 165.528 110.145 166.659 109.719 167.587C109.313 168.496 108.762 169.182 108.066 169.646C108.975 170.091 109.652 170.825 110.096 171.85C110.56 172.855 110.792 174.015 110.792 175.33C110.792 177.534 110.28 179.264 109.255 180.521C108.231 181.758 106.597 182.377 104.354 182.377ZM104.354 167.906C105.321 167.906 105.804 166.736 105.804 164.397C105.804 163.604 105.679 162.976 105.427 162.512C105.176 162.048 104.818 161.816 104.354 161.816C103.871 161.816 103.494 162.048 103.223 162.512C102.972 162.957 102.846 163.575 102.846 164.368C102.846 166.727 103.349 167.906 104.354 167.906ZM104.354 178.81C104.876 178.81 105.253 178.607 105.485 178.201C105.737 177.776 105.882 177.321 105.92 176.838C105.978 176.335 106.007 175.717 106.007 174.982C106.007 173.977 105.891 173.184 105.659 172.604C105.447 172.024 105.012 171.734 104.354 171.734C103.678 171.734 103.233 172.063 103.02 172.72C102.808 173.358 102.701 174.247 102.701 175.388C102.701 176.355 102.808 177.167 103.02 177.824C103.233 178.481 103.678 178.81 104.354 178.81ZM113.881 165.644H118.289V170.052H113.881V165.644ZM113.881 175.968H118.289V180.376H113.881V175.968ZM127.578 182.435C125.238 182.435 123.576 181.797 122.59 180.521C121.604 179.245 121.111 177.428 121.111 175.069V174.228H125.954V175.069C125.954 176.268 126.07 177.118 126.302 177.621C126.553 178.104 127.007 178.346 127.665 178.346C128.283 178.346 128.699 178.104 128.912 177.621C129.124 177.138 129.231 176.335 129.231 175.214C129.231 173.977 129.057 173.078 128.709 172.517C128.361 171.937 127.713 171.637 126.766 171.618H125.867V168.283H126.65C127.636 168.283 128.312 168.022 128.68 167.5C129.047 166.959 129.231 166.069 129.231 164.832C129.231 163.885 129.105 163.179 128.854 162.715C128.602 162.251 128.158 162.019 127.52 162.019C126.92 162.019 126.505 162.27 126.273 162.773C126.06 163.256 125.954 163.972 125.954 164.919V166.137H121.111V164.716C121.111 162.609 121.671 160.994 122.793 159.873C123.933 158.732 125.509 158.162 127.52 158.162C129.569 158.162 131.164 158.703 132.305 159.786C133.445 160.869 134.016 162.444 134.016 164.513C134.016 165.847 133.745 166.988 133.204 167.935C132.662 168.863 131.976 169.443 131.145 169.675C132.034 170.004 132.73 170.593 133.233 171.444C133.755 172.295 134.016 173.513 134.016 175.098C134.016 177.379 133.503 179.177 132.479 180.492C131.454 181.787 129.82 182.435 127.578 182.435ZM142.88 182.435C140.812 182.435 139.226 181.826 138.124 180.608C137.022 179.39 136.471 177.756 136.471 175.707V165.064C136.471 162.918 137.003 161.236 138.066 160.018C139.149 158.781 140.754 158.162 142.88 158.162C145.007 158.162 146.602 158.781 147.665 160.018C148.729 161.236 149.26 162.918 149.26 165.064V175.707C149.26 177.737 148.7 179.371 147.578 180.608C146.476 181.826 144.91 182.435 142.88 182.435ZM142.88 178.114C143.48 178.114 143.866 177.863 144.04 177.36C144.234 176.857 144.33 176.268 144.33 175.591V165.18C144.33 164.407 144.243 163.769 144.069 163.266C143.915 162.744 143.518 162.483 142.88 162.483C142.242 162.483 141.836 162.734 141.662 163.237C141.508 163.74 141.43 164.387 141.43 165.18V175.591C141.43 177.273 141.914 178.114 142.88 178.114Z" fill="white"/>
<path d="M41.74 112.51H55.805V136H50.701V116.222H46.844V136H41.74V112.51ZM59.0376 119.238H63.7646V125.734H66.5776V119.238H71.3336V136H66.5776V128.982H63.7646V136H59.0376V119.238ZM74.6509 124.313H82.1619V127.329H74.6509V124.313ZM85.7214 112.51H99.7864V136H94.6824V116.222H90.8254V136H85.7214V112.51ZM105.049 122.428H102.004V119.238H112.792V122.428H109.747V136H105.049V122.428Z" fill="white"/>
<path d="M249.468 142.348C246.916 142.348 245.099 141.681 244.016 140.347C242.953 138.994 242.421 137.051 242.421 134.518V126.05C242.421 123.459 242.953 121.507 244.016 120.192C245.079 118.858 246.897 118.191 249.468 118.191C251.923 118.191 253.663 118.781 254.688 119.96C255.713 121.139 256.225 122.812 256.225 124.977V127.007H251.15V124.658C251.15 123.749 251.053 123.053 250.86 122.57C250.667 122.087 250.203 121.845 249.468 121.845C248.733 121.845 248.25 122.106 248.018 122.628C247.786 123.131 247.67 123.836 247.67 124.745V135.794C247.67 136.722 247.786 137.437 248.018 137.94C248.269 138.423 248.753 138.665 249.468 138.665C250.183 138.665 250.638 138.423 250.831 137.94C251.044 137.437 251.15 136.722 251.15 135.794V133.329H256.225V135.359C256.225 137.563 255.713 139.284 254.688 140.521C253.663 141.739 251.923 142.348 249.468 142.348ZM264.417 142.29C262.87 142.29 261.681 142.039 260.85 141.536C260.018 141.014 259.438 140.279 259.11 139.332C258.8 138.365 258.646 137.118 258.646 135.591V126.224C258.646 124.059 258.965 122.464 259.603 121.439C260.241 120.395 261.188 119.651 262.445 119.206C263.083 118.955 263.953 118.723 265.055 118.51C265.963 118.297 266.708 118.094 267.288 117.901C267.887 117.708 268.448 117.447 268.97 117.118L269.144 120.917C268.66 121.168 268.148 121.362 267.607 121.497C267.065 121.632 266.418 121.768 265.664 121.903C265.567 121.922 265.238 121.99 264.678 122.106C264.136 122.203 263.653 122.338 263.228 122.512C262.725 122.705 262.367 123.063 262.155 123.585C261.942 124.107 261.836 124.842 261.836 125.789V127.065C262.59 126.195 263.914 125.76 265.809 125.76C266.853 125.76 267.684 125.963 268.303 126.369C268.941 126.756 269.405 127.394 269.695 128.283C270.004 129.153 270.159 130.352 270.159 131.879V135.968C270.159 137.611 269.927 138.897 269.463 139.825C268.999 140.753 268.351 141.401 267.52 141.768C266.688 142.116 265.654 142.29 264.417 142.29ZM264.504 139.245C264.871 139.245 265.132 139.148 265.287 138.955C265.461 138.762 265.577 138.414 265.635 137.911C265.693 137.408 265.722 136.606 265.722 135.504V131.038C265.722 130.052 265.644 129.385 265.49 129.037C265.335 128.67 265.016 128.486 264.533 128.486C264.185 128.486 263.895 128.641 263.663 128.95C263.45 129.24 263.295 129.743 263.199 130.458V135.475C263.199 136.558 263.228 137.36 263.286 137.882C263.344 138.385 263.46 138.742 263.634 138.955C263.827 139.148 264.117 139.245 264.504 139.245ZM273.215 130.313H280.726V133.329H273.215V130.313ZM284.286 118.51H290.405C291.932 118.51 293.228 118.674 294.291 119.003C295.374 119.312 296.244 119.921 296.901 120.83C297.558 121.739 297.887 123.015 297.887 124.658C297.887 126.05 297.587 127.133 296.988 127.906C296.389 128.679 295.538 129.172 294.436 129.385C295.789 129.559 296.824 130.129 297.539 131.096C298.254 132.063 298.612 133.377 298.612 135.04C298.612 139.68 296.244 142 291.507 142H284.286V118.51ZM290.492 127.906C291.594 127.906 292.338 127.655 292.725 127.152C293.131 126.649 293.334 125.866 293.334 124.803C293.334 123.875 293.083 123.179 292.58 122.715C292.077 122.232 291.343 121.99 290.376 121.99H289.477V127.906H290.492ZM290.579 138.375C291.681 138.375 292.454 138.104 292.899 137.563C293.363 137.002 293.595 136.132 293.595 134.953C293.595 133.619 293.363 132.681 292.899 132.14C292.454 131.599 291.671 131.328 290.55 131.328H289.477V138.375H290.579ZM306.526 142.29C304.708 142.29 303.287 141.797 302.263 140.811C301.238 139.825 300.726 138.452 300.726 136.693V130.545C300.726 128.766 301.228 127.394 302.234 126.427C303.258 125.441 304.689 124.948 306.526 124.948C308.343 124.948 309.735 125.373 310.702 126.224C311.688 127.075 312.181 128.331 312.181 129.994V131.763H307.628V129.849C307.628 129.211 307.531 128.776 307.338 128.544C307.164 128.293 306.893 128.167 306.526 128.167C306.158 128.167 305.888 128.322 305.714 128.631C305.559 128.921 305.482 129.424 305.482 130.139V137.099C305.482 137.814 305.569 138.317 305.743 138.607C305.917 138.897 306.187 139.042 306.555 139.042C306.922 139.042 307.193 138.916 307.367 138.665C307.541 138.414 307.628 137.988 307.628 137.389V135.156H312.181V137.186C312.181 138.849 311.688 140.115 310.702 140.985C309.716 141.855 308.324 142.29 306.526 142.29Z" fill="white"/>
<path d="M211.569 185.348C209.384 185.348 207.838 184.855 206.929 183.869C206.04 182.864 205.595 181.336 205.595 179.287V178.91H210.119C210.119 179.954 210.206 180.679 210.38 181.085C210.573 181.491 210.979 181.694 211.598 181.694C212.043 181.694 212.362 181.559 212.555 181.288C212.768 181.017 212.913 180.563 212.99 179.925C213.067 179.287 213.106 178.32 213.106 177.025V174.937C212.855 175.343 212.458 175.662 211.917 175.894C211.376 176.126 210.767 176.242 210.09 176.242C208.389 176.242 207.132 175.585 206.32 174.27C205.527 172.955 205.131 171.264 205.131 169.195C205.131 166.624 205.634 164.652 206.639 163.279C207.664 161.887 209.307 161.191 211.569 161.191C213.792 161.191 215.426 161.848 216.47 163.163C217.514 164.458 218.036 166.285 218.036 168.644V177.402C218.036 179.935 217.562 181.897 216.615 183.289C215.668 184.662 213.986 185.348 211.569 185.348ZM211.627 172.53C212.207 172.53 212.7 172.221 213.106 171.602V167.774C213.106 166.846 213 166.111 212.787 165.57C212.574 165.029 212.168 164.758 211.569 164.758C210.95 164.758 210.544 165.067 210.351 165.686C210.177 166.285 210.09 167.3 210.09 168.731C210.09 169.678 210.119 170.403 210.177 170.906C210.235 171.389 210.37 171.786 210.583 172.095C210.796 172.385 211.144 172.53 211.627 172.53ZM221.547 168.644H225.955V173.052H221.547V168.644ZM221.547 178.968H225.955V183.376H221.547V178.968ZM235.245 185.435C232.905 185.435 231.243 184.797 230.257 183.521C229.271 182.245 228.778 180.428 228.778 178.069V177.228H233.621V178.069C233.621 179.268 233.737 180.118 233.969 180.621C234.22 181.104 234.674 181.346 235.332 181.346C235.95 181.346 236.366 181.104 236.579 180.621C236.791 180.138 236.898 179.335 236.898 178.214C236.898 176.977 236.724 176.078 236.376 175.517C236.028 174.937 235.38 174.637 234.433 174.618H233.534V171.283H234.317C235.303 171.283 235.979 171.022 236.347 170.5C236.714 169.959 236.898 169.069 236.898 167.832C236.898 166.885 236.772 166.179 236.521 165.715C236.269 165.251 235.825 165.019 235.187 165.019C234.587 165.019 234.172 165.27 233.94 165.773C233.727 166.256 233.621 166.972 233.621 167.919V169.137H228.778V167.716C228.778 165.609 229.338 163.994 230.46 162.873C231.6 161.732 233.176 161.162 235.187 161.162C237.236 161.162 238.831 161.703 239.972 162.786C241.112 163.869 241.683 165.444 241.683 167.513C241.683 168.847 241.412 169.988 240.871 170.935C240.329 171.863 239.643 172.443 238.812 172.675C239.701 173.004 240.397 173.593 240.9 174.444C241.422 175.295 241.683 176.513 241.683 178.098C241.683 180.379 241.17 182.177 240.146 183.492C239.121 184.787 237.487 185.435 235.245 185.435ZM250.547 185.435C248.479 185.435 246.893 184.826 245.791 183.608C244.689 182.39 244.138 180.756 244.138 178.707V168.064C244.138 165.918 244.67 164.236 245.733 163.018C246.816 161.781 248.421 161.162 250.547 161.162C252.674 161.162 254.269 161.781 255.332 163.018C256.396 164.236 256.927 165.918 256.927 168.064V178.707C256.927 180.737 256.367 182.371 255.245 183.608C254.143 184.826 252.577 185.435 250.547 185.435ZM250.547 181.114C251.147 181.114 251.533 180.863 251.707 180.36C251.901 179.857 251.997 179.268 251.997 178.591V168.18C251.997 167.407 251.91 166.769 251.736 166.266C251.582 165.744 251.185 165.483 250.547 165.483C249.909 165.483 249.503 165.734 249.329 166.237C249.175 166.74 249.097 167.387 249.097 168.18V178.591C249.097 180.273 249.581 181.114 250.547 181.114ZM267.793 173.313H275.304V176.329H267.793V173.313ZM288.4 166.295C288.187 166.411 287.627 166.662 286.718 167.049C286.563 167.107 286.322 167.204 285.993 167.339C285.664 167.474 285.394 167.6 285.181 167.716V164.12C287.501 162.921 288.922 162.051 289.444 161.51H293.243V185H288.4V166.295ZM302.803 165.193H296.394V161.51H307.53V164.845L302.426 185H297.699L302.803 165.193ZM310.502 168.644H314.91V173.052H310.502V168.644ZM310.502 178.968H314.91V183.376H310.502V178.968ZM324.199 185.435C321.86 185.435 320.197 184.797 319.211 183.521C318.225 182.245 317.732 180.428 317.732 178.069V177.228H322.575V178.069C322.575 179.268 322.691 180.118 322.923 180.621C323.174 181.104 323.629 181.346 324.286 181.346C324.905 181.346 325.32 181.104 325.533 180.621C325.746 180.138 325.852 179.335 325.852 178.214C325.852 176.977 325.678 176.078 325.33 175.517C324.982 174.937 324.334 174.637 323.387 174.618H322.488V171.283H323.271C324.257 171.283 324.934 171.022 325.301 170.5C325.668 169.959 325.852 169.069 325.852 167.832C325.852 166.885 325.726 166.179 325.475 165.715C325.224 165.251 324.779 165.019 324.141 165.019C323.542 165.019 323.126 165.27 322.894 165.773C322.681 166.256 322.575 166.972 322.575 167.919V169.137H317.732V167.716C317.732 165.609 318.293 163.994 319.414 162.873C320.555 161.732 322.13 161.162 324.141 161.162C326.19 161.162 327.785 161.703 328.926 162.786C330.067 163.869 330.637 165.444 330.637 167.513C330.637 168.847 330.366 169.988 329.825 170.935C329.284 171.863 328.597 172.443 327.766 172.675C328.655 173.004 329.351 173.593 329.854 174.444C330.376 175.295 330.637 176.513 330.637 178.098C330.637 180.379 330.125 182.177 329.1 183.492C328.075 184.787 326.442 185.435 324.199 185.435ZM339.501 185.435C337.433 185.435 335.847 184.826 334.745 183.608C333.643 182.39 333.092 180.756 333.092 178.707V168.064C333.092 165.918 333.624 164.236 334.687 163.018C335.77 161.781 337.375 161.162 339.501 161.162C341.628 161.162 343.223 161.781 344.286 163.018C345.35 164.236 345.881 165.918 345.881 168.064V178.707C345.881 180.737 345.321 182.371 344.199 183.608C343.097 184.826 341.531 185.435 339.501 185.435ZM339.501 181.114C340.101 181.114 340.487 180.863 340.661 180.36C340.855 179.857 340.951 179.268 340.951 178.591V168.18C340.951 167.407 340.864 166.769 340.69 166.266C340.536 165.744 340.139 165.483 339.501 165.483C338.863 165.483 338.457 165.734 338.283 166.237C338.129 166.74 338.051 167.387 338.051 168.18V178.591C338.051 180.273 338.535 181.114 339.501 181.114Z" fill="white"/>
<line x1="0.997982" y1="79.5" x2="496.498" y2="79" stroke="white" stroke-width="4"/>
<line x1="0.997982" y1="207.5" x2="496.498" y2="207" stroke="white" stroke-width="4"/>
</svg>
