<svg id="Filled" height="512" viewBox="0 0 512 512" width="512" xmlns="http://www.w3.org/2000/svg"><path d="m88 224h-48a16 16 0 0 0 -16 16 16 16 0 0 0 16 16h48z" fill="#757c80"/><rect fill="#606669" height="112" rx="16" width="64" x="24" y="376"/><rect fill="#606669" height="112" rx="16" width="64" x="392" y="376"/><path d="m24 400a56 56 0 0 0 56 56h320a56 56 0 0 0 56-56z" fill="#757c80"/><path d="m456 328v64a32 32 0 0 1 -32 32h-368a32 32 0 0 1 -32-32v-64c0-17.55 14.14-63.39 31.65-63.99l48.35-104.01c4.8-12.267 18.827-24 32-24h208c13.173 0 27.2 11.733 32 24l48.35 104.01c17.51.6 31.65 46.44 31.65 63.99z" fill="#9aa3a8"/><path d="m424.35 264h-368.7l44.63-96h279.44z" fill="#dadcde"/><path d="m192 416h96v40h-96z" fill="#dadcde"/><path d="m152 352v32h-96l-32-24v-32c0-7.45 2.55-19.99 6.82-32h33.18a88.029 88.029 0 0 1 82 56z" fill="#757c80"/><path d="m456 328v32l-32 24h-96v-32h6a88.029 88.029 0 0 1 82-56h33.18c4.27 12.01 6.82 24.55 6.82 32z" fill="#757c80"/><path d="m24 328v32l32 24h64a56 56 0 0 0 -56-56z" fill="#ffd33a"/><path d="m456 328v32l-32 24h-64a56 56 0 0 1 56-56z" fill="#ffd33a"/><ellipse cx="240" cy="368" fill="#dadcde" rx="24" ry="16"/><path d="m280 24h208v272h-208z" fill="#e9eef2"/><path d="m352 104h-24l16-16-24-24-16 16v-24h-32v24l-16-16-24 24 16 16h-24v32h24l-16 16 24 24 16-16v24h32v-24l16 16 24-24-16-16h24zm-64 32a16 16 0 1 1 16-16 16 16 0 0 1 -16 16z" fill="#3397e8"/><path d="m288 144a24 24 0 1 0 -24-24 24.028 24.028 0 0 0 24 24zm0-32a8 8 0 1 1 -8 8 8.009 8.009 0 0 1 8-8z"/><path d="m488 16h-208a8 8 0 0 0 -8 8v24a8 8 0 0 0 -8 8v4.687l-2.343-2.344a8 8 0 0 0 -11.314 0l-24 24a8 8 0 0 0 0 11.314l2.344 2.343h-4.687a8 8 0 0 0 -8 8v24h-80c-17.47 0-33.669 14.619-39.353 28.839l-27.501 59.161h-29.146a24 24 0 0 0 -.409 48c-15.344 15.756-23.591 50.49-23.591 64v144a24.028 24.028 0 0 0 24 24h32a24.028 24.028 0 0 0 24-24v-8h288v8a24.028 24.028 0 0 0 24 24h32a24.028 24.028 0 0 0 24-24v-144c0-6.209-1.474-14.953-3.939-24h27.939a8 8 0 0 0 8-8v-272a8 8 0 0 0 -8-8zm-256 96h16a8 8 0 0 0 5.657-13.657l-10.344-10.343 12.687-12.687 10.343 10.344a8 8 0 0 0 13.657-5.657v-16h16v16a8 8 0 0 0 13.657 5.657l10.343-10.344 12.687 12.687-10.344 10.343a8 8 0 0 0 5.657 13.657h16v16h-16a8 8 0 0 0 -5.657 13.657l10.344 10.343-12.687 12.687-10.343-10.344a8 8 0 0 0 -13.657 5.657v16h-16v-16a8 8 0 0 0 -13.657-5.657l-10.343 10.344-12.687-12.687 10.344-10.343a8 8 0 0 0 -5.657-13.657h-16zm88.336 264h-50.1a19.124 19.124 0 0 0 1.764-8c0-13.458-14.056-24-32-24s-32 10.542-32 24a19.124 19.124 0 0 0 1.764 8h-50.1a96.127 96.127 0 0 0 -95.664-88h-21.247c5.908-12.359 11.086-15.923 13.172-16h.046 216.029v24a8 8 0 0 0 8 8h83a96.06 96.06 0 0 0 -42.664 72zm95.664-72h27.411a118.837 118.837 0 0 1 3.82 16h-31.231a64.081 64.081 0 0 0 -63.482 56h-16.118a80.117 80.117 0 0 1 79.6-72zm-160 64c0 3.262-6.233 8-16 8s-16-4.738-16-8 6.233-8 16-8 16 4.738 16 8zm-120-224h92.687l-2.344 2.343a8 8 0 0 0 0 11.314l2.343 2.343h-115.85c4.802-8.8 14.924-16 23.164-16zm-30.615 32h139.3l5.657 5.657a8 8 0 0 0 11.314 0l2.344-2.344v4.687a8 8 0 0 0 8 8v64h-203.8zm-73.385 64a8.012 8.012 0 0 1 8-8h21.708l-7.442 16.009h-14.266a8.012 8.012 0 0 1 -8-8.009zm4.6 64h27.4a80.117 80.117 0 0 1 79.6 72h-16.118a64.081 64.081 0 0 0 -63.482-56h-31.219a121.882 121.882 0 0 1 3.819-16zm-4.6 32h32a48.071 48.071 0 0 1 47.321 40h-52.654l-26.667-20zm48 136a8.009 8.009 0 0 1 -8 8h-32a8.009 8.009 0 0 1 -8-8v-29.735a63.851 63.851 0 0 0 48 21.735zm104-24h-104a47.928 47.928 0 0 1 -37.783-18.449 39.811 39.811 0 0 0 13.783 2.449h128zm96 0h-80v-24h80zm16 0v-16h128a39.807 39.807 0 0 0 13.783-2.449 47.927 47.927 0 0 1 -37.783 18.449zm152 24a8.009 8.009 0 0 1 -8 8h-32a8.009 8.009 0 0 1 -8-8v-8a63.851 63.851 0 0 0 48-21.735zm0-80a24.028 24.028 0 0 1 -24 24h-128a8 8 0 0 0 -8-8h-96a8 8 0 0 0 -8 8h-128a24.028 24.028 0 0 1 -24-24v-16l19.2 14.4a8 8 0 0 0 4.8 1.6h368a8 8 0 0 0 4.8-1.6l19.2-14.4zm0-36-26.667 20h-52.654a48.071 48.071 0 0 1 47.321-40h32zm32-68h-192v-96h16a8 8 0 0 0 8-8v-4.687l2.343 2.344a8 8 0 0 0 11.314 0l24-24a8 8 0 0 0 0-11.314l-2.344-2.343h4.687a8 8 0 0 0 8-8v-32a8 8 0 0 0 -8-8h-4.687l2.344-2.343a8 8 0 0 0 0-11.314l-24-24a8 8 0 0 0 -11.314 0l-2.343 2.344v-4.687a8 8 0 0 0 -8-8h-16v-16h192z"/><path d="m448 152h-72a8 8 0 0 0 0 16h72a8 8 0 0 0 0-16z"/><path d="m448 184h-96a8 8 0 0 0 0 16h96a8 8 0 0 0 0-16z"/><path d="m448 216h-128a8 8 0 0 0 0 16h128a8 8 0 0 0 0-16z"/><path d="m448 248h-128a8 8 0 0 0 0 16h128a8 8 0 0 0 0-16z"/><path d="m448 120h-64a8 8 0 0 0 0 16h64a8 8 0 0 0 0-16z"/><path d="m448 88h-64a8 8 0 0 0 0 16h64a8 8 0 0 0 0-16z"/><path d="m368 72h80a8 8 0 0 0 0-16h-80a8 8 0 0 0 0 16z"/></svg>