<svg width="343" height="76" viewBox="0 0 343 76" fill="none" xmlns="http://www.w3.org/2000/svg">
<path d="M7.569 72.348C5.38433 72.348 3.83767 71.855 2.929 70.869C2.03967 69.8637 1.595 68.3363 1.595 66.287V65.91H6.119C6.119 66.954 6.206 67.679 6.38 68.085C6.57333 68.491 6.97933 68.694 7.598 68.694C8.04267 68.694 8.36167 68.5587 8.555 68.288C8.76767 68.0173 8.91267 67.563 8.99 66.925C9.06733 66.287 9.106 65.3203 9.106 64.025V61.937C8.85467 62.343 8.45833 62.662 7.917 62.894C7.37567 63.126 6.76667 63.242 6.09 63.242C4.38867 63.242 3.132 62.5847 2.32 61.27C1.52733 59.9553 1.131 58.2637 1.131 56.195C1.131 53.6237 1.63367 51.6517 2.639 50.279C3.66367 48.887 5.307 48.191 7.569 48.191C9.79233 48.191 11.426 48.8483 12.47 50.163C13.514 51.4583 14.036 53.2853 14.036 55.644V64.402C14.036 66.9347 13.5623 68.897 12.615 70.289C11.6677 71.6617 9.98567 72.348 7.569 72.348ZM7.627 59.53C8.207 59.53 8.7 59.2207 9.106 58.602V54.774C9.106 53.846 8.99967 53.1113 8.787 52.57C8.57433 52.0287 8.16833 51.758 7.569 51.758C6.95033 51.758 6.54433 52.0673 6.351 52.686C6.177 53.2853 6.09 54.3003 6.09 55.731C6.09 56.6783 6.119 57.4033 6.177 57.906C6.235 58.3893 6.37033 58.7857 6.583 59.095C6.79567 59.385 7.14367 59.53 7.627 59.53ZM17.5475 55.644H21.9555V60.052H17.5475V55.644ZM17.5475 65.968H21.9555V70.376H17.5475V65.968ZM31.2448 72.435C28.9054 72.435 27.2428 71.797 26.2568 70.521C25.2708 69.245 24.7778 67.4277 24.7778 65.069V64.228H29.6208V65.069C29.6208 66.2677 29.7368 67.1183 29.9688 67.621C30.2201 68.1043 30.6744 68.346 31.3318 68.346C31.9504 68.346 32.3661 68.1043 32.5788 67.621C32.7914 67.1377 32.8978 66.3353 32.8978 65.214C32.8978 63.9767 32.7238 63.0777 32.3758 62.517C32.0278 61.937 31.3801 61.6373 30.4328 61.618H29.5338V58.283H30.3168C31.3028 58.283 31.9794 58.022 32.3468 57.5C32.7141 56.9587 32.8978 56.0693 32.8978 54.832C32.8978 53.8847 32.7721 53.179 32.5208 52.715C32.2694 52.251 31.8248 52.019 31.1868 52.019C30.5874 52.019 30.1718 52.2703 29.9398 52.773C29.7271 53.2563 29.6208 53.9717 29.6208 54.919V56.137H24.7778V54.716C24.7778 52.6087 25.3384 50.9943 26.4598 49.873C27.6004 48.7323 29.1761 48.162 31.1868 48.162C33.2361 48.162 34.8311 48.7033 35.9718 49.786C37.1124 50.8687 37.6828 52.4443 37.6828 54.513C37.6828 55.847 37.4121 56.9877 36.8708 57.935C36.3294 58.863 35.6431 59.443 34.8118 59.675C35.7011 60.0037 36.3971 60.5933 36.8998 61.444C37.4218 62.2947 37.6828 63.5127 37.6828 65.098C37.6828 67.3793 37.1704 69.1773 36.1458 70.492C35.1211 71.7873 33.4874 72.435 31.2448 72.435ZM46.5473 72.435C44.4786 72.435 42.8933 71.826 41.7913 70.608C40.6893 69.39 40.1383 67.7563 40.1383 65.707V55.064C40.1383 52.918 40.6699 51.236 41.7333 50.018C42.8159 48.7807 44.4206 48.162 46.5473 48.162C48.6739 48.162 50.2689 48.7807 51.3323 50.018C52.3956 51.236 52.9273 52.918 52.9273 55.064V65.707C52.9273 67.737 52.3666 69.3707 51.2453 70.608C50.1433 71.826 48.5773 72.435 46.5473 72.435ZM46.5473 68.114C47.1466 68.114 47.5333 67.8627 47.7073 67.36C47.9006 66.8573 47.9973 66.2677 47.9973 65.591V55.18C47.9973 54.4067 47.9103 53.7687 47.7363 53.266C47.5816 52.744 47.1853 52.483 46.5473 52.483C45.9093 52.483 45.5033 52.7343 45.3293 53.237C45.1746 53.7397 45.0973 54.3873 45.0973 55.18V65.591C45.0973 67.273 45.5806 68.114 46.5473 68.114ZM63.7925 60.313H71.3035V63.329H63.7925V60.313ZM84.4 53.295C84.1873 53.411 83.6266 53.6623 82.718 54.049C82.5633 54.107 82.3216 54.2037 81.993 54.339C81.6643 54.4743 81.3936 54.6 81.181 54.716V51.12C83.501 49.9213 84.922 49.0513 85.444 48.51H89.243V72H84.4V53.295ZM99.3545 72.377C97.0925 72.377 95.4491 71.739 94.4245 70.463C93.4191 69.1677 92.9165 67.389 92.9165 65.127C92.9165 63.8703 93.1388 62.7587 93.5835 61.792C94.0475 60.806 94.7338 60.0907 95.6425 59.646C94.9658 59.1433 94.4051 58.4473 93.9605 57.558C93.5158 56.6493 93.2935 55.557 93.2935 54.281C93.2935 52.367 93.8155 50.8783 94.8595 49.815C95.9228 48.7323 97.4211 48.191 99.3545 48.191C101.288 48.191 102.767 48.7227 103.791 49.786C104.835 50.8493 105.357 52.3187 105.357 54.194C105.357 55.528 105.145 56.659 104.719 57.587C104.313 58.4957 103.762 59.182 103.066 59.646C103.975 60.0907 104.652 60.8253 105.096 61.85C105.56 62.8553 105.792 64.0153 105.792 65.33C105.792 67.534 105.28 69.2643 104.255 70.521C103.231 71.7583 101.597 72.377 99.3545 72.377ZM99.3545 57.906C100.321 57.906 100.804 56.7363 100.804 54.397C100.804 53.6043 100.679 52.976 100.427 52.512C100.176 52.048 99.8185 51.816 99.3545 51.816C98.8711 51.816 98.4941 52.048 98.2235 52.512C97.9721 52.9567 97.8465 53.5753 97.8465 54.368C97.8465 56.7267 98.3491 57.906 99.3545 57.906ZM99.3545 68.81C99.8765 68.81 100.253 68.607 100.485 68.201C100.737 67.7757 100.882 67.3213 100.92 66.838C100.978 66.3353 101.007 65.7167 101.007 64.982C101.007 63.9767 100.891 63.184 100.659 62.604C100.447 62.024 100.012 61.734 99.3545 61.734C98.6778 61.734 98.2331 62.0627 98.0205 62.72C97.8078 63.358 97.7015 64.2473 97.7015 65.388C97.7015 66.3547 97.8078 67.1667 98.0205 67.824C98.2331 68.4813 98.6778 68.81 99.3545 68.81ZM108.881 55.644H113.289V60.052H108.881V55.644ZM108.881 65.968H113.289V70.376H108.881V65.968ZM122.578 72.435C120.238 72.435 118.576 71.797 117.59 70.521C116.604 69.245 116.111 67.4277 116.111 65.069V64.228H120.954V65.069C120.954 66.2677 121.07 67.1183 121.302 67.621C121.553 68.1043 122.007 68.346 122.665 68.346C123.283 68.346 123.699 68.1043 123.912 67.621C124.124 67.1377 124.231 66.3353 124.231 65.214C124.231 63.9767 124.057 63.0777 123.709 62.517C123.361 61.937 122.713 61.6373 121.766 61.618H120.867V58.283H121.65C122.636 58.283 123.312 58.022 123.68 57.5C124.047 56.9587 124.231 56.0693 124.231 54.832C124.231 53.8847 124.105 53.179 123.854 52.715C123.602 52.251 123.158 52.019 122.52 52.019C121.92 52.019 121.505 52.2703 121.273 52.773C121.06 53.2563 120.954 53.9717 120.954 54.919V56.137H116.111V54.716C116.111 52.6087 116.671 50.9943 117.793 49.873C118.933 48.7323 120.509 48.162 122.52 48.162C124.569 48.162 126.164 48.7033 127.305 49.786C128.445 50.8687 129.016 52.4443 129.016 54.513C129.016 55.847 128.745 56.9877 128.204 57.935C127.662 58.863 126.976 59.443 126.145 59.675C127.034 60.0037 127.73 60.5933 128.233 61.444C128.755 62.2947 129.016 63.5127 129.016 65.098C129.016 67.3793 128.503 69.1773 127.479 70.492C126.454 71.7873 124.82 72.435 122.578 72.435ZM137.88 72.435C135.812 72.435 134.226 71.826 133.124 70.608C132.022 69.39 131.471 67.7563 131.471 65.707V55.064C131.471 52.918 132.003 51.236 133.066 50.018C134.149 48.7807 135.754 48.162 137.88 48.162C140.007 48.162 141.602 48.7807 142.665 50.018C143.729 51.236 144.26 52.918 144.26 55.064V65.707C144.26 67.737 143.7 69.3707 142.578 70.608C141.476 71.826 139.91 72.435 137.88 72.435ZM137.88 68.114C138.48 68.114 138.866 67.8627 139.04 67.36C139.234 66.8573 139.33 66.2677 139.33 65.591V55.18C139.33 54.4067 139.243 53.7687 139.069 53.266C138.915 52.744 138.518 52.483 137.88 52.483C137.242 52.483 136.836 52.7343 136.662 53.237C136.508 53.7397 136.43 54.3873 136.43 55.18V65.591C136.43 67.273 136.914 68.114 137.88 68.114Z" fill="white"/>
<path d="M36.74 2.51H50.805V26H45.701V6.222H41.844V26H36.74V2.51ZM54.0376 9.238H58.7646V15.734H61.5776V9.238H66.3336V26H61.5776V18.982H58.7646V26H54.0376V9.238ZM69.6509 14.313H77.1619V17.329H69.6509V14.313ZM80.7214 2.51H94.7864V26H89.6824V6.222H85.8254V26H80.7214V2.51ZM100.049 12.428H97.004V9.238H107.792V12.428H104.747V26H100.049V12.428Z" fill="white"/>
<path d="M244.468 32.348C241.916 32.348 240.099 31.681 239.016 30.347C237.953 28.9937 237.421 27.0507 237.421 24.518V16.05C237.421 13.4593 237.953 11.5067 239.016 10.192C240.079 8.858 241.897 8.191 244.468 8.191C246.923 8.191 248.663 8.78067 249.688 9.96C250.713 11.1393 251.225 12.8117 251.225 14.977V17.007H246.15V14.658C246.15 13.7493 246.053 13.0533 245.86 12.57C245.667 12.0867 245.203 11.845 244.468 11.845C243.733 11.845 243.25 12.106 243.018 12.628C242.786 13.1307 242.67 13.8363 242.67 14.745V25.794C242.67 26.722 242.786 27.4373 243.018 27.94C243.269 28.4233 243.753 28.665 244.468 28.665C245.183 28.665 245.638 28.4233 245.831 27.94C246.044 27.4373 246.15 26.722 246.15 25.794V23.329H251.225V25.359C251.225 27.563 250.713 29.2837 249.688 30.521C248.663 31.739 246.923 32.348 244.468 32.348ZM259.417 32.29C257.87 32.29 256.681 32.0387 255.85 31.536C255.018 31.014 254.438 30.2793 254.11 29.332C253.8 28.3653 253.646 27.1183 253.646 25.591V16.224C253.646 14.0587 253.965 12.4637 254.603 11.439C255.241 10.395 256.188 9.65067 257.445 9.206C258.083 8.95467 258.953 8.72267 260.055 8.51C260.963 8.29733 261.708 8.09433 262.288 7.901C262.887 7.70767 263.448 7.44667 263.97 7.118L264.144 10.917C263.66 11.1683 263.148 11.3617 262.607 11.497C262.065 11.6323 261.418 11.7677 260.664 11.903C260.567 11.9223 260.238 11.99 259.678 12.106C259.136 12.2027 258.653 12.338 258.228 12.512C257.725 12.7053 257.367 13.063 257.155 13.585C256.942 14.107 256.836 14.8417 256.836 15.789V17.065C257.59 16.195 258.914 15.76 260.809 15.76C261.853 15.76 262.684 15.963 263.303 16.369C263.941 16.7557 264.405 17.3937 264.695 18.283C265.004 19.153 265.159 20.3517 265.159 21.879V25.968C265.159 27.6113 264.927 28.897 264.463 29.825C263.999 30.753 263.351 31.4007 262.52 31.768C261.688 32.116 260.654 32.29 259.417 32.29ZM259.504 29.245C259.871 29.245 260.132 29.1483 260.287 28.955C260.461 28.7617 260.577 28.4137 260.635 27.911C260.693 27.4083 260.722 26.606 260.722 25.504V21.038C260.722 20.052 260.644 19.385 260.49 19.037C260.335 18.6697 260.016 18.486 259.533 18.486C259.185 18.486 258.895 18.6407 258.663 18.95C258.45 19.24 258.295 19.7427 258.199 20.458V25.475C258.199 26.5577 258.228 27.36 258.286 27.882C258.344 28.3847 258.46 28.7423 258.634 28.955C258.827 29.1483 259.117 29.245 259.504 29.245ZM268.215 20.313H275.726V23.329H268.215V20.313ZM279.286 8.51H285.405C286.932 8.51 288.228 8.67433 289.291 9.003C290.374 9.31233 291.244 9.92133 291.901 10.83C292.558 11.7387 292.887 13.0147 292.887 14.658C292.887 16.05 292.587 17.1327 291.988 17.906C291.389 18.6793 290.538 19.1723 289.436 19.385C290.789 19.559 291.824 20.1293 292.539 21.096C293.254 22.0627 293.612 23.3773 293.612 25.04C293.612 29.68 291.244 32 286.507 32H279.286V8.51ZM285.492 17.906C286.594 17.906 287.338 17.6547 287.725 17.152C288.131 16.6493 288.334 15.8663 288.334 14.803C288.334 13.875 288.083 13.179 287.58 12.715C287.077 12.2317 286.343 11.99 285.376 11.99H284.477V17.906H285.492ZM285.579 28.375C286.681 28.375 287.454 28.1043 287.899 27.563C288.363 27.0023 288.595 26.1323 288.595 24.953C288.595 23.619 288.363 22.6813 287.899 22.14C287.454 21.5987 286.671 21.328 285.55 21.328H284.477V28.375H285.579ZM301.526 32.29C299.708 32.29 298.287 31.797 297.263 30.811C296.238 29.825 295.726 28.4523 295.726 26.693V20.545C295.726 18.7663 296.228 17.3937 297.234 16.427C298.258 15.441 299.689 14.948 301.526 14.948C303.343 14.948 304.735 15.3733 305.702 16.224C306.688 17.0747 307.181 18.3313 307.181 19.994V21.763H302.628V19.849C302.628 19.211 302.531 18.776 302.338 18.544C302.164 18.2927 301.893 18.167 301.526 18.167C301.158 18.167 300.888 18.3217 300.714 18.631C300.559 18.921 300.482 19.4237 300.482 20.139V27.099C300.482 27.8143 300.569 28.317 300.743 28.607C300.917 28.897 301.187 29.042 301.555 29.042C301.922 29.042 302.193 28.9163 302.367 28.665C302.541 28.4137 302.628 27.9883 302.628 27.389V25.156H307.181V27.186C307.181 28.8487 306.688 30.115 305.702 30.985C304.716 31.855 303.324 32.29 301.526 32.29Z" fill="white"/>
<path d="M206.569 75.348C204.384 75.348 202.838 74.855 201.929 73.869C201.04 72.8637 200.595 71.3363 200.595 69.287V68.91H205.119C205.119 69.954 205.206 70.679 205.38 71.085C205.573 71.491 205.979 71.694 206.598 71.694C207.043 71.694 207.362 71.5587 207.555 71.288C207.768 71.0173 207.913 70.563 207.99 69.925C208.067 69.287 208.106 68.3203 208.106 67.025V64.937C207.855 65.343 207.458 65.662 206.917 65.894C206.376 66.126 205.767 66.242 205.09 66.242C203.389 66.242 202.132 65.5847 201.32 64.27C200.527 62.9553 200.131 61.2637 200.131 59.195C200.131 56.6237 200.634 54.6517 201.639 53.279C202.664 51.887 204.307 51.191 206.569 51.191C208.792 51.191 210.426 51.8483 211.47 53.163C212.514 54.4583 213.036 56.2853 213.036 58.644V67.402C213.036 69.9347 212.562 71.897 211.615 73.289C210.668 74.6617 208.986 75.348 206.569 75.348ZM206.627 62.53C207.207 62.53 207.7 62.2207 208.106 61.602V57.774C208.106 56.846 208 56.1113 207.787 55.57C207.574 55.0287 207.168 54.758 206.569 54.758C205.95 54.758 205.544 55.0673 205.351 55.686C205.177 56.2853 205.09 57.3003 205.09 58.731C205.09 59.6783 205.119 60.4033 205.177 60.906C205.235 61.3893 205.37 61.7857 205.583 62.095C205.796 62.385 206.144 62.53 206.627 62.53ZM216.547 58.644H220.955V63.052H216.547V58.644ZM216.547 68.968H220.955V73.376H216.547V68.968ZM230.245 75.435C227.905 75.435 226.243 74.797 225.257 73.521C224.271 72.245 223.778 70.4277 223.778 68.069V67.228H228.621V68.069C228.621 69.2677 228.737 70.1183 228.969 70.621C229.22 71.1043 229.674 71.346 230.332 71.346C230.95 71.346 231.366 71.1043 231.579 70.621C231.791 70.1377 231.898 69.3353 231.898 68.214C231.898 66.9767 231.724 66.0777 231.376 65.517C231.028 64.937 230.38 64.6373 229.433 64.618H228.534V61.283H229.317C230.303 61.283 230.979 61.022 231.347 60.5C231.714 59.9587 231.898 59.0693 231.898 57.832C231.898 56.8847 231.772 56.179 231.521 55.715C231.269 55.251 230.825 55.019 230.187 55.019C229.587 55.019 229.172 55.2703 228.94 55.773C228.727 56.2563 228.621 56.9717 228.621 57.919V59.137H223.778V57.716C223.778 55.6087 224.338 53.9943 225.46 52.873C226.6 51.7323 228.176 51.162 230.187 51.162C232.236 51.162 233.831 51.7033 234.972 52.786C236.112 53.8687 236.683 55.4443 236.683 57.513C236.683 58.847 236.412 59.9877 235.871 60.935C235.329 61.863 234.643 62.443 233.812 62.675C234.701 63.0037 235.397 63.5933 235.9 64.444C236.422 65.2947 236.683 66.5127 236.683 68.098C236.683 70.3793 236.17 72.1773 235.146 73.492C234.121 74.7873 232.487 75.435 230.245 75.435ZM245.547 75.435C243.479 75.435 241.893 74.826 240.791 73.608C239.689 72.39 239.138 70.7563 239.138 68.707V58.064C239.138 55.918 239.67 54.236 240.733 53.018C241.816 51.7807 243.421 51.162 245.547 51.162C247.674 51.162 249.269 51.7807 250.332 53.018C251.396 54.236 251.927 55.918 251.927 58.064V68.707C251.927 70.737 251.367 72.3707 250.245 73.608C249.143 74.826 247.577 75.435 245.547 75.435ZM245.547 71.114C246.147 71.114 246.533 70.8627 246.707 70.36C246.901 69.8573 246.997 69.2677 246.997 68.591V58.18C246.997 57.4067 246.91 56.7687 246.736 56.266C246.582 55.744 246.185 55.483 245.547 55.483C244.909 55.483 244.503 55.7343 244.329 56.237C244.175 56.7397 244.097 57.3873 244.097 58.18V68.591C244.097 70.273 244.581 71.114 245.547 71.114ZM262.793 63.313H270.304V66.329H262.793V63.313ZM283.4 56.295C283.187 56.411 282.627 56.6623 281.718 57.049C281.563 57.107 281.322 57.2037 280.993 57.339C280.664 57.4743 280.394 57.6 280.181 57.716V54.12C282.501 52.9213 283.922 52.0513 284.444 51.51H288.243V75H283.4V56.295ZM297.803 55.193H291.394V51.51H302.53V54.845L297.426 75H292.699L297.803 55.193ZM305.502 58.644H309.91V63.052H305.502V58.644ZM305.502 68.968H309.91V73.376H305.502V68.968ZM319.199 75.435C316.86 75.435 315.197 74.797 314.211 73.521C313.225 72.245 312.732 70.4277 312.732 68.069V67.228H317.575V68.069C317.575 69.2677 317.691 70.1183 317.923 70.621C318.174 71.1043 318.629 71.346 319.286 71.346C319.905 71.346 320.32 71.1043 320.533 70.621C320.746 70.1377 320.852 69.3353 320.852 68.214C320.852 66.9767 320.678 66.0777 320.33 65.517C319.982 64.937 319.334 64.6373 318.387 64.618H317.488V61.283H318.271C319.257 61.283 319.934 61.022 320.301 60.5C320.668 59.9587 320.852 59.0693 320.852 57.832C320.852 56.8847 320.726 56.179 320.475 55.715C320.224 55.251 319.779 55.019 319.141 55.019C318.542 55.019 318.126 55.2703 317.894 55.773C317.681 56.2563 317.575 56.9717 317.575 57.919V59.137H312.732V57.716C312.732 55.6087 313.293 53.9943 314.414 52.873C315.555 51.7323 317.13 51.162 319.141 51.162C321.19 51.162 322.785 51.7033 323.926 52.786C325.067 53.8687 325.637 55.4443 325.637 57.513C325.637 58.847 325.366 59.9877 324.825 60.935C324.284 61.863 323.597 62.443 322.766 62.675C323.655 63.0037 324.351 63.5933 324.854 64.444C325.376 65.2947 325.637 66.5127 325.637 68.098C325.637 70.3793 325.125 72.1773 324.1 73.492C323.075 74.7873 321.442 75.435 319.199 75.435ZM334.501 75.435C332.433 75.435 330.847 74.826 329.745 73.608C328.643 72.39 328.092 70.7563 328.092 68.707V58.064C328.092 55.918 328.624 54.236 329.687 53.018C330.77 51.7807 332.375 51.162 334.501 51.162C336.628 51.162 338.223 51.7807 339.286 53.018C340.35 54.236 340.881 55.918 340.881 58.064V68.707C340.881 70.737 340.321 72.3707 339.199 73.608C338.097 74.826 336.531 75.435 334.501 75.435ZM334.501 71.114C335.101 71.114 335.487 70.8627 335.661 70.36C335.855 69.8573 335.951 69.2677 335.951 68.591V58.18C335.951 57.4067 335.864 56.7687 335.69 56.266C335.536 55.744 335.139 55.483 334.501 55.483C333.863 55.483 333.457 55.7343 333.283 56.237C333.129 56.7397 333.051 57.3873 333.051 58.18V68.591C333.051 70.273 333.535 71.114 334.501 71.114Z" fill="white"/>
</svg>
